<mxfile host="app.diagrams.net" agent="Mozilla/5.0 (Windows NT 10.0; Win64; x64) AppleWebKit/537.36 (KHTML, like Gecko) Chrome/131.0.0.0 Safari/537.36" version="26.0.3" pages="7">
  <diagram name="VV - Gestione Utente" id="slyX6L_KDD4TTtpNHL4F">
    <mxGraphModel grid="1" page="1" gridSize="10" guides="1" tooltips="1" connect="1" arrows="1" fold="1" pageScale="1" pageWidth="827" pageHeight="1169" math="0" shadow="0">
      <root>
        <mxCell id="0" />
        <mxCell id="1" parent="0" />
        <mxCell id="p9PNzSu26VIdFwJ5La3x-1" value="&lt;p style=&quot;margin:0px;margin-top:6px;text-align:center;&quot;&gt;&lt;b&gt;Component&lt;/b&gt;&lt;/p&gt;&lt;p style=&quot;margin:0px;margin-top:6px;text-align:center;&quot;&gt;&lt;b&gt;&amp;lt;&amp;lt;subsystem&amp;gt;&amp;gt;&lt;/b&gt;&lt;/p&gt;&lt;p style=&quot;margin:0px;margin-top:6px;text-align:center;&quot;&gt;&lt;b&gt;Gestione Utente&lt;/b&gt;&lt;/p&gt;&lt;hr size=&quot;1&quot; style=&quot;border-style:solid;&quot;&gt;&lt;p style=&quot;margin:0px;margin-left:8px;&quot;&gt;&lt;br&gt;&lt;/p&gt;" style="align=left;overflow=fill;html=1;dropTarget=0;whiteSpace=wrap;" vertex="1" parent="1">
          <mxGeometry x="319" y="70" width="380" height="650" as="geometry" />
        </mxCell>
        <mxCell id="p9PNzSu26VIdFwJ5La3x-2" value="" style="shape=component;jettyWidth=8;jettyHeight=4;" vertex="1" parent="p9PNzSu26VIdFwJ5La3x-1">
          <mxGeometry x="1" width="20" height="20" relative="1" as="geometry">
            <mxPoint x="-24" y="4" as="offset" />
          </mxGeometry>
        </mxCell>
        <mxCell id="p9PNzSu26VIdFwJ5La3x-3" value="&lt;p style=&quot;margin:0px;margin-top:6px;text-align:center;&quot;&gt;&lt;b&gt;Component&lt;/b&gt;&lt;/p&gt;&lt;hr size=&quot;1&quot; style=&quot;border-style:solid;&quot;&gt;&lt;p style=&quot;text-align: center; margin: 0px 0px 0px 8px;&quot;&gt;GUI&lt;/p&gt;" style="align=left;overflow=fill;html=1;dropTarget=0;whiteSpace=wrap;" vertex="1" parent="1">
          <mxGeometry x="418" y="180" width="180" height="90" as="geometry" />
        </mxCell>
        <mxCell id="p9PNzSu26VIdFwJ5La3x-4" value="" style="shape=component;jettyWidth=8;jettyHeight=4;" vertex="1" parent="p9PNzSu26VIdFwJ5La3x-3">
          <mxGeometry x="1" width="20" height="20" relative="1" as="geometry">
            <mxPoint x="-24" y="4" as="offset" />
          </mxGeometry>
        </mxCell>
        <mxCell id="p9PNzSu26VIdFwJ5La3x-5" value="" style="rounded=0;orthogonalLoop=1;jettySize=auto;html=1;endArrow=halfCircle;endFill=0;endSize=6;strokeWidth=1;sketch=0;exitX=0.5;exitY=0;exitDx=0;exitDy=0;" edge="1" parent="1" source="p9PNzSu26VIdFwJ5La3x-8" target="p9PNzSu26VIdFwJ5La3x-7">
          <mxGeometry relative="1" as="geometry">
            <mxPoint x="519" y="295" as="sourcePoint" />
          </mxGeometry>
        </mxCell>
        <mxCell id="p9PNzSu26VIdFwJ5La3x-6" value="" style="rounded=0;orthogonalLoop=1;jettySize=auto;html=1;endArrow=oval;endFill=0;sketch=0;sourcePerimeterSpacing=0;targetPerimeterSpacing=0;endSize=10;exitX=0.5;exitY=1;exitDx=0;exitDy=0;" edge="1" parent="1" source="p9PNzSu26VIdFwJ5La3x-3" target="p9PNzSu26VIdFwJ5La3x-7">
          <mxGeometry relative="1" as="geometry">
            <mxPoint x="479" y="295" as="sourcePoint" />
          </mxGeometry>
        </mxCell>
        <mxCell id="p9PNzSu26VIdFwJ5La3x-7" value="" style="ellipse;whiteSpace=wrap;html=1;align=center;aspect=fixed;fillColor=none;strokeColor=none;resizable=0;perimeter=centerPerimeter;rotatable=0;allowArrows=0;points=[];outlineConnect=1;" vertex="1" parent="1">
          <mxGeometry x="503" y="290" width="10" height="10" as="geometry" />
        </mxCell>
        <mxCell id="p9PNzSu26VIdFwJ5La3x-8" value="&lt;p style=&quot;margin:0px;margin-top:6px;text-align:center;&quot;&gt;&lt;b&gt;Component&lt;/b&gt;&lt;/p&gt;&lt;hr size=&quot;1&quot; style=&quot;border-style:solid;&quot;&gt;&lt;p style=&quot;text-align: center; margin: 0px 0px 0px 8px;&quot;&gt;Control&lt;/p&gt;" style="align=left;overflow=fill;html=1;dropTarget=0;whiteSpace=wrap;" vertex="1" parent="1">
          <mxGeometry x="418" y="320" width="180" height="90" as="geometry" />
        </mxCell>
        <mxCell id="p9PNzSu26VIdFwJ5La3x-9" value="" style="shape=component;jettyWidth=8;jettyHeight=4;" vertex="1" parent="p9PNzSu26VIdFwJ5La3x-8">
          <mxGeometry x="1" width="20" height="20" relative="1" as="geometry">
            <mxPoint x="-24" y="4" as="offset" />
          </mxGeometry>
        </mxCell>
        <mxCell id="p9PNzSu26VIdFwJ5La3x-10" value="&lt;p style=&quot;margin:0px;margin-top:6px;text-align:center;&quot;&gt;&lt;b&gt;Component&lt;/b&gt;&lt;/p&gt;&lt;hr size=&quot;1&quot; style=&quot;border-style:solid;&quot;&gt;&lt;p style=&quot;text-align: center; margin: 0px 0px 0px 8px;&quot;&gt;Service&lt;/p&gt;" style="align=left;overflow=fill;html=1;dropTarget=0;whiteSpace=wrap;" vertex="1" parent="1">
          <mxGeometry x="418" y="460" width="180" height="90" as="geometry" />
        </mxCell>
        <mxCell id="p9PNzSu26VIdFwJ5La3x-11" value="" style="shape=component;jettyWidth=8;jettyHeight=4;" vertex="1" parent="p9PNzSu26VIdFwJ5La3x-10">
          <mxGeometry x="1" width="20" height="20" relative="1" as="geometry">
            <mxPoint x="-24" y="4" as="offset" />
          </mxGeometry>
        </mxCell>
        <mxCell id="p9PNzSu26VIdFwJ5La3x-12" value="" style="rounded=0;orthogonalLoop=1;jettySize=auto;html=1;endArrow=halfCircle;endFill=0;endSize=6;strokeWidth=1;sketch=0;exitX=0.5;exitY=0;exitDx=0;exitDy=0;" edge="1" parent="1" source="p9PNzSu26VIdFwJ5La3x-15" target="p9PNzSu26VIdFwJ5La3x-14">
          <mxGeometry relative="1" as="geometry">
            <mxPoint x="519" y="575" as="sourcePoint" />
          </mxGeometry>
        </mxCell>
        <mxCell id="p9PNzSu26VIdFwJ5La3x-13" value="" style="rounded=0;orthogonalLoop=1;jettySize=auto;html=1;endArrow=oval;endFill=0;sketch=0;sourcePerimeterSpacing=0;targetPerimeterSpacing=0;endSize=10;exitX=0.5;exitY=1;exitDx=0;exitDy=0;" edge="1" parent="1" source="p9PNzSu26VIdFwJ5La3x-10" target="p9PNzSu26VIdFwJ5La3x-14">
          <mxGeometry relative="1" as="geometry">
            <mxPoint x="479" y="575" as="sourcePoint" />
          </mxGeometry>
        </mxCell>
        <mxCell id="p9PNzSu26VIdFwJ5La3x-14" value="" style="ellipse;whiteSpace=wrap;html=1;align=center;aspect=fixed;fillColor=none;strokeColor=none;resizable=0;perimeter=centerPerimeter;rotatable=0;allowArrows=0;points=[];outlineConnect=1;" vertex="1" parent="1">
          <mxGeometry x="503" y="570" width="10" height="10" as="geometry" />
        </mxCell>
        <mxCell id="p9PNzSu26VIdFwJ5La3x-15" value="&lt;p style=&quot;margin:0px;margin-top:6px;text-align:center;&quot;&gt;&lt;b&gt;Component&lt;/b&gt;&lt;/p&gt;&lt;hr size=&quot;1&quot; style=&quot;border-style:solid;&quot;&gt;&lt;p style=&quot;text-align: center; margin: 0px 0px 0px 8px;&quot;&gt;DAO&lt;/p&gt;" style="align=left;overflow=fill;html=1;dropTarget=0;whiteSpace=wrap;" vertex="1" parent="1">
          <mxGeometry x="418" y="600" width="180" height="90" as="geometry" />
        </mxCell>
        <mxCell id="p9PNzSu26VIdFwJ5La3x-16" value="" style="shape=component;jettyWidth=8;jettyHeight=4;" vertex="1" parent="p9PNzSu26VIdFwJ5La3x-15">
          <mxGeometry x="1" width="20" height="20" relative="1" as="geometry">
            <mxPoint x="-24" y="4" as="offset" />
          </mxGeometry>
        </mxCell>
        <mxCell id="p9PNzSu26VIdFwJ5La3x-17" value="" style="rounded=0;orthogonalLoop=1;jettySize=auto;html=1;endArrow=halfCircle;endFill=0;endSize=6;strokeWidth=1;sketch=0;exitX=0.5;exitY=0;exitDx=0;exitDy=0;" edge="1" parent="1">
          <mxGeometry relative="1" as="geometry">
            <mxPoint x="507.77" y="460" as="sourcePoint" />
            <mxPoint x="507.77" y="435" as="targetPoint" />
          </mxGeometry>
        </mxCell>
        <mxCell id="p9PNzSu26VIdFwJ5La3x-18" value="" style="rounded=0;orthogonalLoop=1;jettySize=auto;html=1;endArrow=oval;endFill=0;sketch=0;sourcePerimeterSpacing=0;targetPerimeterSpacing=0;endSize=10;exitX=0.5;exitY=1;exitDx=0;exitDy=0;" edge="1" parent="1">
          <mxGeometry relative="1" as="geometry">
            <mxPoint x="507.77" y="410" as="sourcePoint" />
            <mxPoint x="507.77" y="435" as="targetPoint" />
          </mxGeometry>
        </mxCell>
        <mxCell id="p9PNzSu26VIdFwJ5La3x-19" value="" style="rounded=0;orthogonalLoop=1;jettySize=auto;html=1;endArrow=halfCircle;endFill=0;endSize=6;strokeWidth=1;sketch=0;fontSize=12;curved=1;" edge="1" parent="1">
          <mxGeometry relative="1" as="geometry">
            <mxPoint x="259" y="334" as="sourcePoint" />
            <mxPoint x="204" y="334" as="targetPoint" />
          </mxGeometry>
        </mxCell>
        <mxCell id="p9PNzSu26VIdFwJ5La3x-20" value="" style="ellipse;whiteSpace=wrap;html=1;align=center;aspect=fixed;fillColor=none;strokeColor=none;resizable=0;perimeter=centerPerimeter;rotatable=0;allowArrows=0;points=[];outlineConnect=1;" vertex="1" parent="1">
          <mxGeometry x="392" y="360" width="10" height="10" as="geometry" />
        </mxCell>
        <mxCell id="p9PNzSu26VIdFwJ5La3x-21" value="GestioneCorsoController&lt;div&gt;&lt;br&gt;&lt;/div&gt;" style="text;align=center;fontStyle=1;verticalAlign=middle;spacingLeft=3;spacingRight=3;strokeColor=none;rotatable=0;points=[[0,0.5],[1,0.5]];portConstraint=eastwest;html=1;" vertex="1" parent="1">
          <mxGeometry x="80" y="264" width="80" height="26" as="geometry" />
        </mxCell>
        <mxCell id="p9PNzSu26VIdFwJ5La3x-25" value="" style="rounded=0;orthogonalLoop=1;jettySize=auto;html=1;endArrow=halfCircle;endFill=0;endSize=6;strokeWidth=1;sketch=0;fontSize=12;curved=1;exitX=0.5;exitY=1;exitDx=0;exitDy=0;" edge="1" parent="1" source="p9PNzSu26VIdFwJ5La3x-15">
          <mxGeometry relative="1" as="geometry">
            <mxPoint x="491" y="770" as="sourcePoint" />
            <mxPoint x="509" y="780" as="targetPoint" />
          </mxGeometry>
        </mxCell>
        <mxCell id="p9PNzSu26VIdFwJ5La3x-26" value="" style="whiteSpace=wrap;html=1;aspect=fixed;" vertex="1" parent="1">
          <mxGeometry x="498" y="710" width="20" height="20" as="geometry" />
        </mxCell>
        <mxCell id="p9PNzSu26VIdFwJ5La3x-27" value="" style="rounded=0;orthogonalLoop=1;jettySize=auto;html=1;endArrow=halfCircle;endFill=0;endSize=6;strokeWidth=1;sketch=0;fontSize=12;curved=1;" edge="1" parent="1">
          <mxGeometry relative="1" as="geometry">
            <mxPoint x="259" y="270.38" as="sourcePoint" />
            <mxPoint x="204" y="270" as="targetPoint" />
          </mxGeometry>
        </mxCell>
        <mxCell id="p9PNzSu26VIdFwJ5La3x-28" value="" style="endArrow=none;html=1;rounded=0;" edge="1" parent="1">
          <mxGeometry width="50" height="50" relative="1" as="geometry">
            <mxPoint x="259" y="460" as="sourcePoint" />
            <mxPoint x="259" y="270" as="targetPoint" />
          </mxGeometry>
        </mxCell>
        <mxCell id="p9PNzSu26VIdFwJ5La3x-29" value="" style="endArrow=none;html=1;rounded=0;exitX=0;exitY=0.5;exitDx=0;exitDy=0;" edge="1" parent="1" source="p9PNzSu26VIdFwJ5La3x-8">
          <mxGeometry width="50" height="50" relative="1" as="geometry">
            <mxPoint x="418" y="379" as="sourcePoint" />
            <mxPoint x="259" y="364" as="targetPoint" />
          </mxGeometry>
        </mxCell>
        <mxCell id="p9PNzSu26VIdFwJ5La3x-30" value="" style="whiteSpace=wrap;html=1;aspect=fixed;" vertex="1" parent="1">
          <mxGeometry x="309" y="355" width="20" height="20" as="geometry" />
        </mxCell>
        <mxCell id="IeptP2ijEpKZnnAtjfDt-1" value="" style="rounded=0;orthogonalLoop=1;jettySize=auto;html=1;endArrow=halfCircle;endFill=0;endSize=6;strokeWidth=1;sketch=0;fontSize=12;curved=1;" edge="1" parent="1">
          <mxGeometry relative="1" as="geometry">
            <mxPoint x="259" y="459" as="sourcePoint" />
            <mxPoint x="204" y="459" as="targetPoint" />
          </mxGeometry>
        </mxCell>
        <mxCell id="IeptP2ijEpKZnnAtjfDt-2" value="Gestione&lt;div&gt;Utente&lt;/div&gt;" style="text;align=center;fontStyle=1;verticalAlign=middle;spacingLeft=3;spacingRight=3;strokeColor=none;rotatable=0;points=[[0,0.5],[1,0.5]];portConstraint=eastwest;html=1;" vertex="1" parent="1">
          <mxGeometry x="129" y="385" width="80" height="26" as="geometry" />
        </mxCell>
        <mxCell id="IeptP2ijEpKZnnAtjfDt-3" value="" style="rounded=0;orthogonalLoop=1;jettySize=auto;html=1;endArrow=halfCircle;endFill=0;endSize=6;strokeWidth=1;sketch=0;fontSize=12;curved=1;" edge="1" parent="1">
          <mxGeometry relative="1" as="geometry">
            <mxPoint x="258" y="399.38" as="sourcePoint" />
            <mxPoint x="203" y="399" as="targetPoint" />
          </mxGeometry>
        </mxCell>
        <mxCell id="IeptP2ijEpKZnnAtjfDt-4" value="" style="endArrow=none;html=1;rounded=0;" edge="1" parent="1">
          <mxGeometry width="50" height="50" relative="1" as="geometry">
            <mxPoint x="259" y="459" as="sourcePoint" />
            <mxPoint x="259" y="399" as="targetPoint" />
          </mxGeometry>
        </mxCell>
        <mxCell id="F8lmUaPLzXA1pg7SEPHv-1" value="Gestione" style="text;html=1;align=center;verticalAlign=middle;resizable=0;points=[];autosize=1;strokeColor=none;fillColor=none;" vertex="1" parent="1">
          <mxGeometry x="134" y="308" width="70" height="30" as="geometry" />
        </mxCell>
      </root>
    </mxGraphModel>
  </diagram>
  <diagram id="etq83hyJiPCjhCoIfQ-u" name="MZ - Gestione Alloggio">
    <mxGraphModel grid="1" page="1" gridSize="10" guides="1" tooltips="1" connect="1" arrows="1" fold="1" pageScale="1" pageWidth="827" pageHeight="1169" math="0" shadow="0">
      <root>
        <mxCell id="0" />
        <mxCell id="1" parent="0" />
        <mxCell id="UXDIfPeSyt14oo_-J_SF-1" value="&lt;p style=&quot;margin:0px;margin-top:6px;text-align:center;&quot;&gt;Component&lt;/p&gt;&lt;p style=&quot;margin:0px;margin-top:6px;text-align:center;&quot;&gt;&amp;lt;&amp;lt;Subsystem&amp;gt;&amp;gt;&lt;/p&gt;&lt;p style=&quot;margin:0px;margin-top:6px;text-align:center;&quot;&gt;GestioneAlloggio&lt;/p&gt;&lt;hr size=&quot;1&quot; style=&quot;border-style:solid;&quot;&gt;&lt;p style=&quot;margin:0px;margin-left:8px;&quot;&gt;&lt;br&gt;&lt;/p&gt;" style="align=left;overflow=fill;html=1;dropTarget=0;whiteSpace=wrap;direction=south;" vertex="1" parent="1">
          <mxGeometry x="880" y="160" width="300" height="800" as="geometry" />
        </mxCell>
        <mxCell id="UXDIfPeSyt14oo_-J_SF-2" value="" style="shape=component;jettyWidth=8;jettyHeight=4;" vertex="1" parent="UXDIfPeSyt14oo_-J_SF-1">
          <mxGeometry x="1" width="20" height="20" relative="1" as="geometry">
            <mxPoint x="-24" y="4" as="offset" />
          </mxGeometry>
        </mxCell>
        <mxCell id="UXDIfPeSyt14oo_-J_SF-3" value="&lt;p style=&quot;margin:0px;margin-top:6px;text-align:center;&quot;&gt;Component&lt;/p&gt;&lt;hr size=&quot;1&quot; style=&quot;border-style:solid;&quot;&gt;&lt;p style=&quot;text-align: center; margin: 0px 0px 0px 8px;&quot;&gt;GUI&lt;/p&gt;" style="align=left;overflow=fill;html=1;dropTarget=0;whiteSpace=wrap;" vertex="1" parent="1">
          <mxGeometry x="950" y="270" width="180" height="90" as="geometry" />
        </mxCell>
        <mxCell id="UXDIfPeSyt14oo_-J_SF-4" value="" style="shape=component;jettyWidth=8;jettyHeight=4;" vertex="1" parent="UXDIfPeSyt14oo_-J_SF-3">
          <mxGeometry x="1" width="20" height="20" relative="1" as="geometry">
            <mxPoint x="-24" y="4" as="offset" />
          </mxGeometry>
        </mxCell>
        <mxCell id="UXDIfPeSyt14oo_-J_SF-5" value="" style="rounded=0;orthogonalLoop=1;jettySize=auto;html=1;endArrow=oval;endFill=0;sketch=0;sourcePerimeterSpacing=0;targetPerimeterSpacing=0;endSize=10;exitX=0.5;exitY=0;exitDx=0;exitDy=0;" edge="1" parent="1" source="UXDIfPeSyt14oo_-J_SF-11">
          <mxGeometry relative="1" as="geometry">
            <mxPoint x="1020" y="475" as="sourcePoint" />
            <mxPoint x="1040" y="410" as="targetPoint" />
            <Array as="points" />
          </mxGeometry>
        </mxCell>
        <mxCell id="UXDIfPeSyt14oo_-J_SF-8" value="" style="rounded=0;orthogonalLoop=1;jettySize=auto;html=1;endArrow=halfCircle;endFill=0;endSize=6;strokeWidth=1;sketch=0;" edge="1" parent="1">
          <mxGeometry relative="1" as="geometry">
            <mxPoint x="1040" y="360" as="sourcePoint" />
            <mxPoint x="1039.87" y="410" as="targetPoint" />
          </mxGeometry>
        </mxCell>
        <mxCell id="UXDIfPeSyt14oo_-J_SF-9" value="&lt;p style=&quot;margin: 6px 0px 0px;&quot;&gt;Component&lt;/p&gt;&lt;hr style=&quot;border-style:solid;&quot; size=&quot;1&quot;&gt;&lt;p style=&quot;margin:0px;margin-left:8px;&quot;&gt;Service&lt;/p&gt;" style="align=center;overflow=fill;html=1;dropTarget=0;whiteSpace=wrap;" vertex="1" parent="1">
          <mxGeometry x="950" y="650" width="180" height="90" as="geometry" />
        </mxCell>
        <mxCell id="UXDIfPeSyt14oo_-J_SF-10" value="" style="shape=component;jettyWidth=8;jettyHeight=4;" vertex="1" parent="UXDIfPeSyt14oo_-J_SF-9">
          <mxGeometry x="1" width="20" height="20" relative="1" as="geometry">
            <mxPoint x="-24" y="4" as="offset" />
          </mxGeometry>
        </mxCell>
        <mxCell id="UXDIfPeSyt14oo_-J_SF-11" value="&lt;p style=&quot;margin: 6px 0px 0px;&quot;&gt;Component&lt;/p&gt;&lt;hr style=&quot;border-style:solid;&quot; size=&quot;1&quot;&gt;&lt;p style=&quot;margin:0px;margin-left:8px;&quot;&gt;Controller&lt;/p&gt;" style="align=center;overflow=fill;html=1;dropTarget=0;whiteSpace=wrap;" vertex="1" parent="1">
          <mxGeometry x="950" y="460" width="180" height="90" as="geometry" />
        </mxCell>
        <mxCell id="UXDIfPeSyt14oo_-J_SF-12" value="" style="shape=component;jettyWidth=8;jettyHeight=4;" vertex="1" parent="UXDIfPeSyt14oo_-J_SF-11">
          <mxGeometry x="1" width="20" height="20" relative="1" as="geometry">
            <mxPoint x="-24" y="4" as="offset" />
          </mxGeometry>
        </mxCell>
        <mxCell id="UXDIfPeSyt14oo_-J_SF-14" style="edgeStyle=orthogonalEdgeStyle;rounded=0;orthogonalLoop=1;jettySize=auto;html=1;exitX=0.5;exitY=1;exitDx=0;exitDy=0;" edge="1" parent="1" source="UXDIfPeSyt14oo_-J_SF-9" target="UXDIfPeSyt14oo_-J_SF-9">
          <mxGeometry relative="1" as="geometry" />
        </mxCell>
        <mxCell id="UXDIfPeSyt14oo_-J_SF-15" value="&lt;p style=&quot;margin: 6px 0px 0px;&quot;&gt;Component&lt;/p&gt;&lt;hr style=&quot;border-style:solid;&quot; size=&quot;1&quot;&gt;&lt;p style=&quot;margin:0px;margin-left:8px;&quot;&gt;DAO&lt;/p&gt;" style="align=center;overflow=fill;html=1;dropTarget=0;whiteSpace=wrap;" vertex="1" parent="1">
          <mxGeometry x="950" y="840" width="180" height="90" as="geometry" />
        </mxCell>
        <mxCell id="UXDIfPeSyt14oo_-J_SF-16" value="" style="shape=component;jettyWidth=8;jettyHeight=4;" vertex="1" parent="UXDIfPeSyt14oo_-J_SF-15">
          <mxGeometry x="1" width="20" height="20" relative="1" as="geometry">
            <mxPoint x="-24" y="4" as="offset" />
          </mxGeometry>
        </mxCell>
        <mxCell id="UXDIfPeSyt14oo_-J_SF-18" value="" style="rounded=0;orthogonalLoop=1;jettySize=auto;html=1;endArrow=halfCircle;endFill=0;endSize=6;strokeWidth=1;sketch=0;exitX=0.529;exitY=1;exitDx=0;exitDy=0;exitPerimeter=0;" edge="1" parent="1">
          <mxGeometry relative="1" as="geometry">
            <mxPoint x="1040" y="960" as="sourcePoint" />
            <mxPoint x="1040" y="1030" as="targetPoint" />
          </mxGeometry>
        </mxCell>
        <mxCell id="UXDIfPeSyt14oo_-J_SF-19" value="JPA" style="text;html=1;align=center;verticalAlign=middle;resizable=0;points=[];autosize=1;strokeColor=none;fillColor=none;" vertex="1" parent="1">
          <mxGeometry x="1020" y="1030" width="40" height="30" as="geometry" />
        </mxCell>
        <mxCell id="UXDIfPeSyt14oo_-J_SF-23" value="&lt;b&gt;GestioneUtenteController&lt;/b&gt;" style="text;html=1;align=center;verticalAlign=middle;resizable=0;points=[];autosize=1;strokeColor=none;fillColor=none;" vertex="1" parent="1">
          <mxGeometry x="1370" y="573.5" width="170" height="30" as="geometry" />
        </mxCell>
        <mxCell id="UXDIfPeSyt14oo_-J_SF-26" value="" style="rounded=0;whiteSpace=wrap;html=1;" vertex="1" parent="1">
          <mxGeometry x="1170" y="517" width="20" height="20" as="geometry" />
        </mxCell>
        <mxCell id="_wi-IXB-kEm5AoIY_XgV-1" value="&lt;b&gt;GestioneComunicazioneController&lt;/b&gt;" style="text;html=1;align=center;verticalAlign=middle;resizable=0;points=[];autosize=1;strokeColor=none;fillColor=none;" vertex="1" parent="1">
          <mxGeometry x="1370" y="512.5" width="220" height="30" as="geometry" />
        </mxCell>
        <mxCell id="_wi-IXB-kEm5AoIY_XgV-3" value="&lt;b&gt;Modulo FIA&lt;/b&gt;" style="text;html=1;align=center;verticalAlign=middle;resizable=0;points=[];autosize=1;strokeColor=none;fillColor=none;" vertex="1" parent="1">
          <mxGeometry x="1229" y="585" width="90" height="30" as="geometry" />
        </mxCell>
        <mxCell id="_wi-IXB-kEm5AoIY_XgV-7" value="" style="rounded=0;whiteSpace=wrap;html=1;" vertex="1" parent="1">
          <mxGeometry x="1170" y="590" width="20" height="20" as="geometry" />
        </mxCell>
        <mxCell id="6SoCVoaBVob3hr2LO5Sv-1" value="" style="rounded=0;orthogonalLoop=1;jettySize=auto;html=1;endArrow=halfCircle;endFill=0;endSize=6;strokeWidth=1;sketch=0;exitX=1;exitY=0.5;exitDx=0;exitDy=0;" edge="1" parent="1">
          <mxGeometry relative="1" as="geometry">
            <mxPoint x="1190" y="600" as="sourcePoint" />
            <mxPoint x="1240" y="600" as="targetPoint" />
          </mxGeometry>
        </mxCell>
        <mxCell id="iiVCUwOlJJGZkLCZu_ni-1" value="" style="endArrow=none;html=1;rounded=0;exitX=1;exitY=0.75;exitDx=0;exitDy=0;entryX=0;entryY=0.5;entryDx=0;entryDy=0;" edge="1" parent="1" source="UXDIfPeSyt14oo_-J_SF-11" target="UXDIfPeSyt14oo_-J_SF-26">
          <mxGeometry width="50" height="50" relative="1" as="geometry">
            <mxPoint x="1120" y="530" as="sourcePoint" />
            <mxPoint x="1170" y="480" as="targetPoint" />
          </mxGeometry>
        </mxCell>
        <mxCell id="ac-hUhjBdWPVzvuO4qnH-2" value="" style="endArrow=none;html=1;rounded=0;entryX=0;entryY=0.5;entryDx=0;entryDy=0;" edge="1" parent="1" target="_wi-IXB-kEm5AoIY_XgV-7">
          <mxGeometry width="50" height="50" relative="1" as="geometry">
            <mxPoint x="1048" y="600" as="sourcePoint" />
            <mxPoint x="1168" y="600" as="targetPoint" />
          </mxGeometry>
        </mxCell>
        <mxCell id="cijWpsouBsvLabT6tUFt-1" value="" style="endArrow=none;html=1;rounded=0;exitX=1;exitY=0.75;exitDx=0;exitDy=0;" edge="1" parent="1">
          <mxGeometry width="50" height="50" relative="1" as="geometry">
            <mxPoint x="1190" y="527.5" as="sourcePoint" />
            <mxPoint x="1329" y="528" as="targetPoint" />
          </mxGeometry>
        </mxCell>
        <mxCell id="M2xzipZNTsXD-2oOrh7v-1" value="" style="rounded=0;orthogonalLoop=1;jettySize=auto;html=1;endArrow=halfCircle;endFill=0;endSize=6;strokeWidth=1;sketch=0;exitX=1;exitY=0.5;exitDx=0;exitDy=0;" edge="1" parent="1">
          <mxGeometry relative="1" as="geometry">
            <mxPoint x="1329" y="528" as="sourcePoint" />
            <mxPoint x="1379" y="528" as="targetPoint" />
          </mxGeometry>
        </mxCell>
        <mxCell id="M2xzipZNTsXD-2oOrh7v-2" value="" style="rounded=0;orthogonalLoop=1;jettySize=auto;html=1;endArrow=halfCircle;endFill=0;endSize=6;strokeWidth=1;sketch=0;" edge="1" parent="1">
          <mxGeometry relative="1" as="geometry">
            <mxPoint x="1329" y="589" as="sourcePoint" />
            <mxPoint x="1379" y="588.5" as="targetPoint" />
          </mxGeometry>
        </mxCell>
        <mxCell id="M2xzipZNTsXD-2oOrh7v-3" value="" style="endArrow=none;html=1;rounded=0;" edge="1" parent="1">
          <mxGeometry width="50" height="50" relative="1" as="geometry">
            <mxPoint x="1329" y="470.5" as="sourcePoint" />
            <mxPoint x="1329" y="588.5" as="targetPoint" />
          </mxGeometry>
        </mxCell>
        <mxCell id="5tOAroZPMbHq64s0Tn8d-1" value="" style="rounded=0;orthogonalLoop=1;jettySize=auto;html=1;endArrow=halfCircle;endFill=0;endSize=6;strokeWidth=1;sketch=0;" edge="1" parent="1">
          <mxGeometry relative="1" as="geometry">
            <mxPoint x="1039.76" y="550" as="sourcePoint" />
            <mxPoint x="1039.6299999999999" y="600" as="targetPoint" />
          </mxGeometry>
        </mxCell>
        <mxCell id="5tOAroZPMbHq64s0Tn8d-2" value="" style="rounded=0;orthogonalLoop=1;jettySize=auto;html=1;endArrow=oval;endFill=0;sketch=0;sourcePerimeterSpacing=0;targetPerimeterSpacing=0;endSize=10;exitX=0.5;exitY=0;exitDx=0;exitDy=0;" edge="1" parent="1">
          <mxGeometry relative="1" as="geometry">
            <mxPoint x="1039.7600000000002" y="650" as="sourcePoint" />
            <mxPoint x="1039.7600000000002" y="600" as="targetPoint" />
            <Array as="points" />
          </mxGeometry>
        </mxCell>
        <mxCell id="5tOAroZPMbHq64s0Tn8d-3" value="" style="rounded=0;orthogonalLoop=1;jettySize=auto;html=1;endArrow=halfCircle;endFill=0;endSize=6;strokeWidth=1;sketch=0;" edge="1" parent="1">
          <mxGeometry relative="1" as="geometry">
            <mxPoint x="1039.89" y="740" as="sourcePoint" />
            <mxPoint x="1039.76" y="790" as="targetPoint" />
          </mxGeometry>
        </mxCell>
        <mxCell id="5tOAroZPMbHq64s0Tn8d-4" value="" style="rounded=0;orthogonalLoop=1;jettySize=auto;html=1;endArrow=oval;endFill=0;sketch=0;sourcePerimeterSpacing=0;targetPerimeterSpacing=0;endSize=10;exitX=0.5;exitY=0;exitDx=0;exitDy=0;" edge="1" parent="1">
          <mxGeometry relative="1" as="geometry">
            <mxPoint x="1039.7600000000002" y="840" as="sourcePoint" />
            <mxPoint x="1039.7600000000002" y="790" as="targetPoint" />
            <Array as="points" />
          </mxGeometry>
        </mxCell>
        <mxCell id="b3ltkTFJPZMscd1SRXLM-2" value="&lt;b&gt;CDN&lt;/b&gt;" style="text;html=1;align=center;verticalAlign=middle;resizable=0;points=[];autosize=1;strokeColor=none;fillColor=none;" vertex="1" parent="1">
          <mxGeometry x="1370" y="454.5" width="50" height="30" as="geometry" />
        </mxCell>
        <mxCell id="b3ltkTFJPZMscd1SRXLM-3" value="" style="rounded=0;orthogonalLoop=1;jettySize=auto;html=1;endArrow=halfCircle;endFill=0;endSize=6;strokeWidth=1;sketch=0;exitX=1;exitY=0.5;exitDx=0;exitDy=0;" edge="1" parent="1">
          <mxGeometry relative="1" as="geometry">
            <mxPoint x="1329" y="470.5" as="sourcePoint" />
            <mxPoint x="1379" y="470.5" as="targetPoint" />
          </mxGeometry>
        </mxCell>
      </root>
    </mxGraphModel>
  </diagram>
  <diagram id="ERJ98VlV9QV7mNvkW7mX" name="GM - Gestione Annuncio">
    <mxGraphModel grid="1" page="1" gridSize="10" guides="1" tooltips="1" connect="1" arrows="1" fold="1" pageScale="1" pageWidth="827" pageHeight="1169" math="0" shadow="0">
      <root>
        <mxCell id="0" />
        <mxCell id="1" parent="0" />
        <mxCell id="9_hWOVV55IMn0H6YUfzs-1" value="&lt;p style=&quot;margin:0px;margin-top:6px;text-align:center;&quot;&gt;&lt;b&gt;Component&lt;/b&gt;&lt;/p&gt;&lt;p style=&quot;margin:0px;margin-top:6px;text-align:center;&quot;&gt;&lt;b&gt;&amp;lt;&amp;lt;subsystem&amp;gt;&amp;gt;&lt;/b&gt;&lt;/p&gt;&lt;p style=&quot;margin:0px;margin-top:6px;text-align:center;&quot;&gt;&lt;b&gt;Gestione Annuncio&lt;/b&gt;&lt;/p&gt;&lt;hr size=&quot;1&quot; style=&quot;border-style:solid;&quot;&gt;&lt;p style=&quot;margin:0px;margin-left:8px;&quot;&gt;&lt;br&gt;&lt;/p&gt;" style="align=left;overflow=fill;html=1;dropTarget=0;whiteSpace=wrap;" vertex="1" parent="1">
          <mxGeometry x="220" y="80" width="380" height="650" as="geometry" />
        </mxCell>
        <mxCell id="9_hWOVV55IMn0H6YUfzs-2" value="" style="shape=component;jettyWidth=8;jettyHeight=4;" vertex="1" parent="9_hWOVV55IMn0H6YUfzs-1">
          <mxGeometry x="1" width="20" height="20" relative="1" as="geometry">
            <mxPoint x="-24" y="4" as="offset" />
          </mxGeometry>
        </mxCell>
        <mxCell id="9_hWOVV55IMn0H6YUfzs-3" value="&lt;p style=&quot;margin:0px;margin-top:6px;text-align:center;&quot;&gt;&lt;b&gt;Component&lt;/b&gt;&lt;/p&gt;&lt;hr size=&quot;1&quot; style=&quot;border-style:solid;&quot;&gt;&lt;p style=&quot;text-align: center; margin: 0px 0px 0px 8px;&quot;&gt;GUI&lt;/p&gt;" style="align=left;overflow=fill;html=1;dropTarget=0;whiteSpace=wrap;" vertex="1" parent="1">
          <mxGeometry x="319" y="190" width="180" height="90" as="geometry" />
        </mxCell>
        <mxCell id="9_hWOVV55IMn0H6YUfzs-4" value="" style="shape=component;jettyWidth=8;jettyHeight=4;" vertex="1" parent="9_hWOVV55IMn0H6YUfzs-3">
          <mxGeometry x="1" width="20" height="20" relative="1" as="geometry">
            <mxPoint x="-24" y="4" as="offset" />
          </mxGeometry>
        </mxCell>
        <mxCell id="9_hWOVV55IMn0H6YUfzs-14" value="" style="rounded=0;orthogonalLoop=1;jettySize=auto;html=1;endArrow=halfCircle;endFill=0;endSize=6;strokeWidth=1;sketch=0;exitX=0.5;exitY=0;exitDx=0;exitDy=0;" edge="1" parent="1" source="9_hWOVV55IMn0H6YUfzs-17" target="9_hWOVV55IMn0H6YUfzs-16">
          <mxGeometry relative="1" as="geometry">
            <mxPoint x="420" y="305" as="sourcePoint" />
          </mxGeometry>
        </mxCell>
        <mxCell id="9_hWOVV55IMn0H6YUfzs-15" value="" style="rounded=0;orthogonalLoop=1;jettySize=auto;html=1;endArrow=oval;endFill=0;sketch=0;sourcePerimeterSpacing=0;targetPerimeterSpacing=0;endSize=10;exitX=0.5;exitY=1;exitDx=0;exitDy=0;" edge="1" parent="1" source="9_hWOVV55IMn0H6YUfzs-3" target="9_hWOVV55IMn0H6YUfzs-16">
          <mxGeometry relative="1" as="geometry">
            <mxPoint x="380" y="305" as="sourcePoint" />
          </mxGeometry>
        </mxCell>
        <mxCell id="9_hWOVV55IMn0H6YUfzs-16" value="" style="ellipse;whiteSpace=wrap;html=1;align=center;aspect=fixed;fillColor=none;strokeColor=none;resizable=0;perimeter=centerPerimeter;rotatable=0;allowArrows=0;points=[];outlineConnect=1;" vertex="1" parent="1">
          <mxGeometry x="404" y="300" width="10" height="10" as="geometry" />
        </mxCell>
        <mxCell id="9_hWOVV55IMn0H6YUfzs-17" value="&lt;p style=&quot;margin:0px;margin-top:6px;text-align:center;&quot;&gt;&lt;b&gt;Component&lt;/b&gt;&lt;/p&gt;&lt;hr size=&quot;1&quot; style=&quot;border-style:solid;&quot;&gt;&lt;p style=&quot;text-align: center; margin: 0px 0px 0px 8px;&quot;&gt;Control&lt;/p&gt;" style="align=left;overflow=fill;html=1;dropTarget=0;whiteSpace=wrap;" vertex="1" parent="1">
          <mxGeometry x="319" y="330" width="180" height="90" as="geometry" />
        </mxCell>
        <mxCell id="9_hWOVV55IMn0H6YUfzs-18" value="" style="shape=component;jettyWidth=8;jettyHeight=4;" vertex="1" parent="9_hWOVV55IMn0H6YUfzs-17">
          <mxGeometry x="1" width="20" height="20" relative="1" as="geometry">
            <mxPoint x="-24" y="4" as="offset" />
          </mxGeometry>
        </mxCell>
        <mxCell id="9_hWOVV55IMn0H6YUfzs-30" value="&lt;p style=&quot;margin:0px;margin-top:6px;text-align:center;&quot;&gt;&lt;b&gt;Component&lt;/b&gt;&lt;/p&gt;&lt;hr size=&quot;1&quot; style=&quot;border-style:solid;&quot;&gt;&lt;p style=&quot;text-align: center; margin: 0px 0px 0px 8px;&quot;&gt;Service&lt;/p&gt;" style="align=left;overflow=fill;html=1;dropTarget=0;whiteSpace=wrap;" vertex="1" parent="1">
          <mxGeometry x="319" y="470" width="180" height="90" as="geometry" />
        </mxCell>
        <mxCell id="9_hWOVV55IMn0H6YUfzs-31" value="" style="shape=component;jettyWidth=8;jettyHeight=4;" vertex="1" parent="9_hWOVV55IMn0H6YUfzs-30">
          <mxGeometry x="1" width="20" height="20" relative="1" as="geometry">
            <mxPoint x="-24" y="4" as="offset" />
          </mxGeometry>
        </mxCell>
        <mxCell id="9_hWOVV55IMn0H6YUfzs-32" value="" style="rounded=0;orthogonalLoop=1;jettySize=auto;html=1;endArrow=halfCircle;endFill=0;endSize=6;strokeWidth=1;sketch=0;exitX=0.5;exitY=0;exitDx=0;exitDy=0;" edge="1" parent="1" source="9_hWOVV55IMn0H6YUfzs-35" target="9_hWOVV55IMn0H6YUfzs-34">
          <mxGeometry relative="1" as="geometry">
            <mxPoint x="420" y="585" as="sourcePoint" />
          </mxGeometry>
        </mxCell>
        <mxCell id="9_hWOVV55IMn0H6YUfzs-33" value="" style="rounded=0;orthogonalLoop=1;jettySize=auto;html=1;endArrow=oval;endFill=0;sketch=0;sourcePerimeterSpacing=0;targetPerimeterSpacing=0;endSize=10;exitX=0.5;exitY=1;exitDx=0;exitDy=0;" edge="1" parent="1" source="9_hWOVV55IMn0H6YUfzs-30" target="9_hWOVV55IMn0H6YUfzs-34">
          <mxGeometry relative="1" as="geometry">
            <mxPoint x="380" y="585" as="sourcePoint" />
          </mxGeometry>
        </mxCell>
        <mxCell id="9_hWOVV55IMn0H6YUfzs-34" value="" style="ellipse;whiteSpace=wrap;html=1;align=center;aspect=fixed;fillColor=none;strokeColor=none;resizable=0;perimeter=centerPerimeter;rotatable=0;allowArrows=0;points=[];outlineConnect=1;" vertex="1" parent="1">
          <mxGeometry x="404" y="580" width="10" height="10" as="geometry" />
        </mxCell>
        <mxCell id="9_hWOVV55IMn0H6YUfzs-35" value="&lt;p style=&quot;margin:0px;margin-top:6px;text-align:center;&quot;&gt;&lt;b&gt;Component&lt;/b&gt;&lt;/p&gt;&lt;hr size=&quot;1&quot; style=&quot;border-style:solid;&quot;&gt;&lt;p style=&quot;text-align: center; margin: 0px 0px 0px 8px;&quot;&gt;DAO&lt;/p&gt;" style="align=left;overflow=fill;html=1;dropTarget=0;whiteSpace=wrap;" vertex="1" parent="1">
          <mxGeometry x="319" y="610" width="180" height="90" as="geometry" />
        </mxCell>
        <mxCell id="9_hWOVV55IMn0H6YUfzs-36" value="" style="shape=component;jettyWidth=8;jettyHeight=4;" vertex="1" parent="9_hWOVV55IMn0H6YUfzs-35">
          <mxGeometry x="1" width="20" height="20" relative="1" as="geometry">
            <mxPoint x="-24" y="4" as="offset" />
          </mxGeometry>
        </mxCell>
        <mxCell id="9_hWOVV55IMn0H6YUfzs-37" value="" style="rounded=0;orthogonalLoop=1;jettySize=auto;html=1;endArrow=halfCircle;endFill=0;endSize=6;strokeWidth=1;sketch=0;exitX=0.5;exitY=0;exitDx=0;exitDy=0;" edge="1" parent="1">
          <mxGeometry relative="1" as="geometry">
            <mxPoint x="408.77" y="470" as="sourcePoint" />
            <mxPoint x="408.77" y="445" as="targetPoint" />
          </mxGeometry>
        </mxCell>
        <mxCell id="9_hWOVV55IMn0H6YUfzs-38" value="" style="rounded=0;orthogonalLoop=1;jettySize=auto;html=1;endArrow=oval;endFill=0;sketch=0;sourcePerimeterSpacing=0;targetPerimeterSpacing=0;endSize=10;exitX=0.5;exitY=1;exitDx=0;exitDy=0;" edge="1" parent="1">
          <mxGeometry relative="1" as="geometry">
            <mxPoint x="408.77" y="420" as="sourcePoint" />
            <mxPoint x="408.77" y="445" as="targetPoint" />
          </mxGeometry>
        </mxCell>
        <mxCell id="WmcY2F-JOdgZLBDxQznF-4" value="" style="rounded=0;orthogonalLoop=1;jettySize=auto;html=1;endArrow=halfCircle;endFill=0;endSize=6;strokeWidth=1;sketch=0;fontSize=12;curved=1;" edge="1" parent="1">
          <mxGeometry relative="1" as="geometry">
            <mxPoint x="160" y="404.38" as="sourcePoint" />
            <mxPoint x="105" y="404" as="targetPoint" />
          </mxGeometry>
        </mxCell>
        <mxCell id="WmcY2F-JOdgZLBDxQznF-5" value="" style="ellipse;whiteSpace=wrap;html=1;align=center;aspect=fixed;fillColor=none;strokeColor=none;resizable=0;perimeter=centerPerimeter;rotatable=0;allowArrows=0;points=[];outlineConnect=1;" vertex="1" parent="1">
          <mxGeometry x="293" y="370" width="10" height="10" as="geometry" />
        </mxCell>
        <mxCell id="WmcY2F-JOdgZLBDxQznF-6" value="Gestione&lt;div&gt;Utente&lt;/div&gt;" style="text;align=center;fontStyle=1;verticalAlign=middle;spacingLeft=3;spacingRight=3;strokeColor=none;rotatable=0;points=[[0,0.5],[1,0.5]];portConstraint=eastwest;html=1;" vertex="1" parent="1">
          <mxGeometry x="30" y="330" width="80" height="26" as="geometry" />
        </mxCell>
        <mxCell id="WmcY2F-JOdgZLBDxQznF-10" value="" style="rounded=0;orthogonalLoop=1;jettySize=auto;html=1;endArrow=halfCircle;endFill=0;endSize=6;strokeWidth=1;sketch=0;fontSize=12;curved=1;" edge="1" parent="1">
          <mxGeometry relative="1" as="geometry">
            <mxPoint x="400" y="446" as="sourcePoint" />
            <mxPoint x="130" y="446" as="targetPoint" />
          </mxGeometry>
        </mxCell>
        <mxCell id="WmcY2F-JOdgZLBDxQznF-11" value="Modulo&amp;nbsp;&lt;span style=&quot;background-color: initial;&quot;&gt;FIA&lt;/span&gt;" style="text;align=center;fontStyle=1;verticalAlign=middle;spacingLeft=3;spacingRight=3;strokeColor=none;rotatable=0;points=[[0,0.5],[1,0.5]];portConstraint=eastwest;html=1;" vertex="1" parent="1">
          <mxGeometry x="30" y="433" width="130" height="26" as="geometry" />
        </mxCell>
        <mxCell id="WmcY2F-JOdgZLBDxQznF-12" value="" style="whiteSpace=wrap;html=1;aspect=fixed;" vertex="1" parent="1">
          <mxGeometry x="210" y="436" width="20" height="20" as="geometry" />
        </mxCell>
        <mxCell id="WmcY2F-JOdgZLBDxQznF-16" value="" style="rounded=0;orthogonalLoop=1;jettySize=auto;html=1;endArrow=halfCircle;endFill=0;endSize=6;strokeWidth=1;sketch=0;fontSize=12;curved=1;exitX=0.222;exitY=0.988;exitDx=0;exitDy=0;exitPerimeter=0;" edge="1" parent="1">
          <mxGeometry relative="1" as="geometry">
            <mxPoint x="408.54999999999984" y="700.0000000000001" as="sourcePoint" />
            <mxPoint x="408.59000000000003" y="791.08" as="targetPoint" />
          </mxGeometry>
        </mxCell>
        <mxCell id="WmcY2F-JOdgZLBDxQznF-17" value="" style="whiteSpace=wrap;html=1;aspect=fixed;" vertex="1" parent="1">
          <mxGeometry x="400" y="720" width="20" height="20" as="geometry" />
        </mxCell>
        <mxCell id="o-QC1eemHoR5BoEGBW_N-1" value="JPA" style="text;align=center;fontStyle=1;verticalAlign=middle;spacingLeft=3;spacingRight=3;strokeColor=none;rotatable=0;points=[[0,0.5],[1,0.5]];portConstraint=eastwest;html=1;" vertex="1" parent="1">
          <mxGeometry x="369" y="790" width="80" height="26" as="geometry" />
        </mxCell>
        <mxCell id="o-QC1eemHoR5BoEGBW_N-2" value="Gestione&lt;div&gt;Comunicazione&lt;/div&gt;" style="text;align=center;fontStyle=1;verticalAlign=middle;spacingLeft=3;spacingRight=3;strokeColor=none;rotatable=0;points=[[0,0.5],[1,0.5]];portConstraint=eastwest;html=1;" vertex="1" parent="1">
          <mxGeometry x="16" y="388" width="80" height="26" as="geometry" />
        </mxCell>
        <mxCell id="o-QC1eemHoR5BoEGBW_N-3" value="" style="rounded=0;orthogonalLoop=1;jettySize=auto;html=1;endArrow=halfCircle;endFill=0;endSize=6;strokeWidth=1;sketch=0;fontSize=12;curved=1;" edge="1" parent="1">
          <mxGeometry relative="1" as="geometry">
            <mxPoint x="159" y="344.38" as="sourcePoint" />
            <mxPoint x="104" y="344" as="targetPoint" />
          </mxGeometry>
        </mxCell>
        <mxCell id="o-QC1eemHoR5BoEGBW_N-4" value="" style="endArrow=none;html=1;rounded=0;" edge="1" parent="1">
          <mxGeometry width="50" height="50" relative="1" as="geometry">
            <mxPoint x="160" y="404" as="sourcePoint" />
            <mxPoint x="160" y="344" as="targetPoint" />
          </mxGeometry>
        </mxCell>
        <mxCell id="o-QC1eemHoR5BoEGBW_N-5" value="" style="endArrow=none;html=1;rounded=0;exitX=0;exitY=0.5;exitDx=0;exitDy=0;" edge="1" parent="1" source="9_hWOVV55IMn0H6YUfzs-17">
          <mxGeometry width="50" height="50" relative="1" as="geometry">
            <mxPoint x="319" y="389" as="sourcePoint" />
            <mxPoint x="160" y="374" as="targetPoint" />
          </mxGeometry>
        </mxCell>
        <mxCell id="WmcY2F-JOdgZLBDxQznF-7" value="" style="whiteSpace=wrap;html=1;aspect=fixed;" vertex="1" parent="1">
          <mxGeometry x="210" y="365" width="20" height="20" as="geometry" />
        </mxCell>
      </root>
    </mxGraphModel>
  </diagram>
  <diagram id="C1dCjsSETyOn6iINFNFm" name="BC - Gestione Corso">
    <mxGraphModel grid="1" page="1" gridSize="10" guides="1" tooltips="1" connect="1" arrows="1" fold="1" pageScale="1" pageWidth="827" pageHeight="1169" math="0" shadow="0">
      <root>
        <mxCell id="0" />
        <mxCell id="1" parent="0" />
        <mxCell id="8C_DcRBBu4EyK3FzLiqP-1" value="" style="ellipse;whiteSpace=wrap;html=1;align=center;aspect=fixed;fillColor=none;strokeColor=none;resizable=0;perimeter=centerPerimeter;rotatable=0;allowArrows=0;points=[];outlineConnect=1;" vertex="1" parent="1">
          <mxGeometry x="100" y="860" width="10" height="10" as="geometry" />
        </mxCell>
        <mxCell id="8C_DcRBBu4EyK3FzLiqP-2" value="&lt;p style=&quot;margin:0px;margin-top:6px;text-align:center;&quot;&gt;&lt;b&gt;Component&lt;br&gt;&amp;lt;&amp;lt;subsystem&amp;gt;&amp;gt;&lt;br&gt;Corso&lt;/b&gt;&lt;/p&gt;&lt;hr size=&quot;1&quot; style=&quot;border-style:solid;&quot;&gt;&lt;p style=&quot;margin:0px;margin-left:8px;&quot;&gt;&lt;br&gt;&lt;/p&gt;" style="align=left;overflow=fill;html=1;dropTarget=0;whiteSpace=wrap;" vertex="1" parent="1">
          <mxGeometry x="240" y="80" width="320" height="810" as="geometry" />
        </mxCell>
        <mxCell id="8C_DcRBBu4EyK3FzLiqP-3" value="" style="shape=component;jettyWidth=8;jettyHeight=4;" vertex="1" parent="8C_DcRBBu4EyK3FzLiqP-2">
          <mxGeometry x="1" width="20" height="20" relative="1" as="geometry">
            <mxPoint x="-24" y="4" as="offset" />
          </mxGeometry>
        </mxCell>
        <mxCell id="8C_DcRBBu4EyK3FzLiqP-4" value="&lt;p style=&quot;margin:0px;margin-top:6px;text-align:center;&quot;&gt;&lt;b&gt;Component&lt;/b&gt;&lt;/p&gt;&lt;hr size=&quot;1&quot; style=&quot;border-style:solid;&quot;&gt;&lt;p style=&quot;margin: 0px 0px 0px 8px; text-align: center;&quot;&gt;GUI&lt;/p&gt;" style="align=left;overflow=fill;html=1;dropTarget=0;whiteSpace=wrap;" vertex="1" parent="1">
          <mxGeometry x="310" y="160" width="180" height="90" as="geometry" />
        </mxCell>
        <mxCell id="8C_DcRBBu4EyK3FzLiqP-5" value="" style="shape=component;jettyWidth=8;jettyHeight=4;" vertex="1" parent="8C_DcRBBu4EyK3FzLiqP-4">
          <mxGeometry x="1" width="20" height="20" relative="1" as="geometry">
            <mxPoint x="-24" y="4" as="offset" />
          </mxGeometry>
        </mxCell>
        <mxCell id="8C_DcRBBu4EyK3FzLiqP-6" value="&lt;p style=&quot;margin:0px;margin-top:6px;text-align:center;&quot;&gt;&lt;b&gt;Component&lt;/b&gt;&lt;/p&gt;&lt;hr size=&quot;1&quot; style=&quot;border-style:solid;&quot;&gt;&lt;p style=&quot;margin: 0px 0px 0px 8px; text-align: center;&quot;&gt;Control&lt;/p&gt;" style="align=left;overflow=fill;html=1;dropTarget=0;whiteSpace=wrap;" vertex="1" parent="1">
          <mxGeometry x="310" y="360" width="180" height="90" as="geometry" />
        </mxCell>
        <mxCell id="8C_DcRBBu4EyK3FzLiqP-7" value="" style="shape=component;jettyWidth=8;jettyHeight=4;" vertex="1" parent="8C_DcRBBu4EyK3FzLiqP-6">
          <mxGeometry x="1" width="20" height="20" relative="1" as="geometry">
            <mxPoint x="-24" y="4" as="offset" />
          </mxGeometry>
        </mxCell>
        <mxCell id="8C_DcRBBu4EyK3FzLiqP-8" value="&lt;p style=&quot;margin:0px;margin-top:6px;text-align:center;&quot;&gt;&lt;b&gt;Component&lt;/b&gt;&lt;/p&gt;&lt;hr size=&quot;1&quot; style=&quot;border-style:solid;&quot;&gt;&lt;p style=&quot;margin: 0px 0px 0px 8px; text-align: center;&quot;&gt;Service&lt;/p&gt;" style="align=left;overflow=fill;html=1;dropTarget=0;whiteSpace=wrap;" vertex="1" parent="1">
          <mxGeometry x="310" y="560" width="180" height="90" as="geometry" />
        </mxCell>
        <mxCell id="8C_DcRBBu4EyK3FzLiqP-9" value="" style="shape=component;jettyWidth=8;jettyHeight=4;" vertex="1" parent="8C_DcRBBu4EyK3FzLiqP-8">
          <mxGeometry x="1" width="20" height="20" relative="1" as="geometry">
            <mxPoint x="-24" y="4" as="offset" />
          </mxGeometry>
        </mxCell>
        <mxCell id="8C_DcRBBu4EyK3FzLiqP-10" value="&lt;p style=&quot;margin:0px;margin-top:6px;text-align:center;&quot;&gt;&lt;b&gt;Component&lt;/b&gt;&lt;/p&gt;&lt;hr size=&quot;1&quot; style=&quot;border-style:solid;&quot;&gt;&lt;p style=&quot;margin: 0px 0px 0px 8px; text-align: center;&quot;&gt;DAO&lt;/p&gt;" style="align=left;overflow=fill;html=1;dropTarget=0;whiteSpace=wrap;" vertex="1" parent="1">
          <mxGeometry x="310" y="760" width="180" height="90" as="geometry" />
        </mxCell>
        <mxCell id="8C_DcRBBu4EyK3FzLiqP-11" value="" style="shape=component;jettyWidth=8;jettyHeight=4;" vertex="1" parent="8C_DcRBBu4EyK3FzLiqP-10">
          <mxGeometry x="1" width="20" height="20" relative="1" as="geometry">
            <mxPoint x="-24" y="4" as="offset" />
          </mxGeometry>
        </mxCell>
        <mxCell id="8C_DcRBBu4EyK3FzLiqP-12" style="edgeStyle=orthogonalEdgeStyle;rounded=0;orthogonalLoop=1;jettySize=auto;html=1;entryX=0.5;entryY=0;entryDx=0;entryDy=0;endArrow=none;endFill=0;" edge="1" parent="1" source="8C_DcRBBu4EyK3FzLiqP-13" target="8C_DcRBBu4EyK3FzLiqP-8">
          <mxGeometry relative="1" as="geometry" />
        </mxCell>
        <mxCell id="8C_DcRBBu4EyK3FzLiqP-13" value="" style="shape=providedRequiredInterface;html=1;verticalLabelPosition=bottom;sketch=0;rotation=-90;" vertex="1" parent="1">
          <mxGeometry x="390" y="490" width="20" height="20" as="geometry" />
        </mxCell>
        <mxCell id="8C_DcRBBu4EyK3FzLiqP-14" style="edgeStyle=orthogonalEdgeStyle;rounded=0;orthogonalLoop=1;jettySize=auto;html=1;entryX=0.5;entryY=0;entryDx=0;entryDy=0;endArrow=none;endFill=0;" edge="1" parent="1" source="8C_DcRBBu4EyK3FzLiqP-15" target="8C_DcRBBu4EyK3FzLiqP-10">
          <mxGeometry relative="1" as="geometry" />
        </mxCell>
        <mxCell id="8C_DcRBBu4EyK3FzLiqP-15" value="" style="shape=providedRequiredInterface;html=1;verticalLabelPosition=bottom;sketch=0;rotation=-90;" vertex="1" parent="1">
          <mxGeometry x="390" y="690" width="20" height="20" as="geometry" />
        </mxCell>
        <mxCell id="8C_DcRBBu4EyK3FzLiqP-16" style="edgeStyle=orthogonalEdgeStyle;rounded=0;orthogonalLoop=1;jettySize=auto;html=1;entryX=0.5;entryY=0;entryDx=0;entryDy=0;endArrow=none;endFill=0;" edge="1" parent="1" source="8C_DcRBBu4EyK3FzLiqP-17" target="8C_DcRBBu4EyK3FzLiqP-6">
          <mxGeometry relative="1" as="geometry" />
        </mxCell>
        <mxCell id="8C_DcRBBu4EyK3FzLiqP-17" value="" style="shape=providedRequiredInterface;html=1;verticalLabelPosition=bottom;sketch=0;rotation=-90;" vertex="1" parent="1">
          <mxGeometry x="390" y="290" width="20" height="20" as="geometry" />
        </mxCell>
        <mxCell id="8C_DcRBBu4EyK3FzLiqP-18" style="edgeStyle=orthogonalEdgeStyle;rounded=0;orthogonalLoop=1;jettySize=auto;html=1;entryX=1;entryY=0.5;entryDx=0;entryDy=0;entryPerimeter=0;endArrow=none;endFill=0;" edge="1" parent="1" source="8C_DcRBBu4EyK3FzLiqP-4" target="8C_DcRBBu4EyK3FzLiqP-17">
          <mxGeometry relative="1" as="geometry" />
        </mxCell>
        <mxCell id="8C_DcRBBu4EyK3FzLiqP-19" style="edgeStyle=orthogonalEdgeStyle;rounded=0;orthogonalLoop=1;jettySize=auto;html=1;entryX=1;entryY=0.5;entryDx=0;entryDy=0;entryPerimeter=0;endArrow=none;endFill=0;" edge="1" parent="1" source="8C_DcRBBu4EyK3FzLiqP-6" target="8C_DcRBBu4EyK3FzLiqP-13">
          <mxGeometry relative="1" as="geometry" />
        </mxCell>
        <mxCell id="8C_DcRBBu4EyK3FzLiqP-20" style="edgeStyle=orthogonalEdgeStyle;rounded=0;orthogonalLoop=1;jettySize=auto;html=1;entryX=1;entryY=0.5;entryDx=0;entryDy=0;entryPerimeter=0;endArrow=none;endFill=0;" edge="1" parent="1" source="8C_DcRBBu4EyK3FzLiqP-8" target="8C_DcRBBu4EyK3FzLiqP-15">
          <mxGeometry relative="1" as="geometry" />
        </mxCell>
        <mxCell id="8C_DcRBBu4EyK3FzLiqP-21" value="" style="verticalLabelPosition=bottom;verticalAlign=top;html=1;shape=mxgraph.basic.rect;fillColor2=none;strokeWidth=1;size=7.5;indent=5;" vertex="1" parent="1">
          <mxGeometry x="230" y="390" width="20" height="20" as="geometry" />
        </mxCell>
        <mxCell id="8C_DcRBBu4EyK3FzLiqP-22" value="" style="verticalLabelPosition=bottom;verticalAlign=top;html=1;shape=mxgraph.basic.rect;fillColor2=none;strokeWidth=1;size=6.12;indent=5;" vertex="1" parent="1">
          <mxGeometry x="550" y="589" width="20" height="20" as="geometry" />
        </mxCell>
        <mxCell id="8C_DcRBBu4EyK3FzLiqP-23" style="edgeStyle=orthogonalEdgeStyle;rounded=0;orthogonalLoop=1;jettySize=auto;html=1;entryX=0.5;entryY=1;entryDx=0;entryDy=0;endArrow=none;endFill=0;" edge="1" parent="1">
          <mxGeometry relative="1" as="geometry">
            <mxPoint x="400" y="850" as="targetPoint" />
            <mxPoint x="450" y="890" as="sourcePoint" />
          </mxGeometry>
        </mxCell>
        <mxCell id="8C_DcRBBu4EyK3FzLiqP-24" value="" style="verticalLabelPosition=bottom;verticalAlign=top;html=1;shape=mxgraph.basic.rect;fillColor2=none;strokeWidth=1;size=7.5;indent=5;" vertex="1" parent="1">
          <mxGeometry x="390" y="880" width="20" height="20" as="geometry" />
        </mxCell>
        <mxCell id="8C_DcRBBu4EyK3FzLiqP-25" value="" style="rounded=0;orthogonalLoop=1;jettySize=auto;html=1;endArrow=halfCircle;endFill=0;endSize=6;strokeWidth=1;sketch=0;fontSize=12;curved=1;exitX=0.49;exitY=1.04;exitDx=0;exitDy=0;exitPerimeter=0;" edge="1" parent="1">
          <mxGeometry relative="1" as="geometry">
            <mxPoint x="399.5800000000001" y="900" as="sourcePoint" />
            <mxPoint x="399.86" y="949.2" as="targetPoint" />
          </mxGeometry>
        </mxCell>
        <mxCell id="8C_DcRBBu4EyK3FzLiqP-26" value="" style="ellipse;whiteSpace=wrap;html=1;align=center;aspect=fixed;fillColor=none;strokeColor=none;resizable=0;perimeter=centerPerimeter;rotatable=0;allowArrows=0;points=[];outlineConnect=1;" vertex="1" parent="1">
          <mxGeometry x="370" y="990" width="10" height="10" as="geometry" />
        </mxCell>
        <mxCell id="8C_DcRBBu4EyK3FzLiqP-27" value="&lt;font style=&quot;font-size: 12px;&quot;&gt;&lt;b&gt;JPA&lt;/b&gt;&lt;/font&gt;" style="text;html=1;align=center;verticalAlign=middle;whiteSpace=wrap;rounded=0;" vertex="1" parent="1">
          <mxGeometry x="380" y="955" width="40" height="10" as="geometry" />
        </mxCell>
        <mxCell id="8C_DcRBBu4EyK3FzLiqP-28" style="edgeStyle=orthogonalEdgeStyle;rounded=0;orthogonalLoop=1;jettySize=auto;html=1;entryX=0.999;entryY=0.436;entryDx=0;entryDy=0;entryPerimeter=0;endArrow=none;endFill=0;" edge="1" parent="1" source="8C_DcRBBu4EyK3FzLiqP-22" target="8C_DcRBBu4EyK3FzLiqP-8">
          <mxGeometry relative="1" as="geometry" />
        </mxCell>
        <mxCell id="8C_DcRBBu4EyK3FzLiqP-29" style="edgeStyle=orthogonalEdgeStyle;rounded=0;orthogonalLoop=1;jettySize=auto;html=1;endArrow=none;endFill=0;" edge="1" parent="1" source="8C_DcRBBu4EyK3FzLiqP-21">
          <mxGeometry relative="1" as="geometry">
            <mxPoint x="310" y="400" as="targetPoint" />
          </mxGeometry>
        </mxCell>
        <mxCell id="8C_DcRBBu4EyK3FzLiqP-30" value="Gestione&lt;div&gt;Utente&lt;/div&gt;" style="text;align=right;fontStyle=1;verticalAlign=middle;spacingLeft=3;spacingRight=3;strokeColor=none;rotatable=0;points=[[0,0.5],[1,0.5]];portConstraint=eastwest;html=1;" vertex="1" parent="1">
          <mxGeometry x="45" y="360" width="80" height="26" as="geometry" />
        </mxCell>
        <mxCell id="8C_DcRBBu4EyK3FzLiqP-31" value="" style="rounded=0;orthogonalLoop=1;jettySize=auto;html=1;endArrow=halfCircle;endFill=0;endSize=6;strokeWidth=1;sketch=0;fontSize=12;curved=1;" edge="1" parent="1">
          <mxGeometry relative="1" as="geometry">
            <mxPoint x="180" y="373.12" as="sourcePoint" />
            <mxPoint x="125" y="372.74" as="targetPoint" />
          </mxGeometry>
        </mxCell>
        <mxCell id="8C_DcRBBu4EyK3FzLiqP-32" value="" style="rounded=0;orthogonalLoop=1;jettySize=auto;html=1;endArrow=halfCircle;endFill=0;endSize=6;strokeWidth=1;sketch=0;fontSize=12;curved=1;" edge="1" parent="1">
          <mxGeometry relative="1" as="geometry">
            <mxPoint x="570" y="598.5" as="sourcePoint" />
            <mxPoint x="625" y="598.88" as="targetPoint" />
          </mxGeometry>
        </mxCell>
        <mxCell id="8C_DcRBBu4EyK3FzLiqP-33" value="Gestione&lt;div&gt;Comunicazione&lt;/div&gt;" style="text;align=left;fontStyle=1;verticalAlign=middle;spacingLeft=3;spacingRight=3;strokeColor=none;rotatable=0;points=[[0,0.5],[1,0.5]];portConstraint=eastwest;html=1;" vertex="1" parent="1">
          <mxGeometry x="630" y="586" width="80" height="26" as="geometry" />
        </mxCell>
        <mxCell id="5aSBVasTf7AaD1kd963n-1" value="CDN" style="text;align=right;fontStyle=1;verticalAlign=middle;spacingLeft=3;spacingRight=3;strokeColor=none;rotatable=0;points=[[0,0.5],[1,0.5]];portConstraint=eastwest;html=1;" vertex="1" parent="1">
          <mxGeometry x="45" y="416" width="80" height="26" as="geometry" />
        </mxCell>
        <mxCell id="5aSBVasTf7AaD1kd963n-2" value="" style="rounded=0;orthogonalLoop=1;jettySize=auto;html=1;endArrow=halfCircle;endFill=0;endSize=6;strokeWidth=1;sketch=0;fontSize=12;curved=1;" edge="1" parent="1">
          <mxGeometry relative="1" as="geometry">
            <mxPoint x="180" y="429.82" as="sourcePoint" />
            <mxPoint x="125" y="429.44" as="targetPoint" />
          </mxGeometry>
        </mxCell>
        <mxCell id="5aSBVasTf7AaD1kd963n-3" value="" style="endArrow=none;html=1;rounded=0;" edge="1" parent="1">
          <mxGeometry width="50" height="50" relative="1" as="geometry">
            <mxPoint x="180" y="400" as="sourcePoint" />
            <mxPoint x="230" y="400" as="targetPoint" />
          </mxGeometry>
        </mxCell>
        <mxCell id="5aSBVasTf7AaD1kd963n-4" value="" style="endArrow=none;html=1;rounded=0;" edge="1" parent="1">
          <mxGeometry width="50" height="50" relative="1" as="geometry">
            <mxPoint x="180" y="372.44" as="sourcePoint" />
            <mxPoint x="180" y="430" as="targetPoint" />
          </mxGeometry>
        </mxCell>
      </root>
    </mxGraphModel>
  </diagram>
  <diagram id="v0Ojjk1b1DjSoiewlFbr" name="BG - Gestione Corso">
    <mxGraphModel grid="1" page="1" gridSize="10" guides="1" tooltips="1" connect="1" arrows="1" fold="1" pageScale="1" pageWidth="827" pageHeight="1169" math="0" shadow="0">
      <root>
        <mxCell id="0" />
        <mxCell id="1" parent="0" />
        <mxCell id="SbbJZf2o1sV2cWJp_qk--2" value="&lt;p style=&quot;margin:0px;margin-top:6px;text-align:center;&quot;&gt;Component&lt;/p&gt;&lt;p style=&quot;margin:0px;margin-top:6px;text-align:center;&quot;&gt;&amp;lt;&amp;lt;subsystem&amp;gt;&amp;gt;&lt;/p&gt;&lt;p style=&quot;margin:0px;margin-top:6px;text-align:center;&quot;&gt;Evento&lt;/p&gt;&lt;hr size=&quot;1&quot; style=&quot;border-style:solid;&quot;&gt;&lt;p style=&quot;margin:0px;margin-left:8px;&quot;&gt;&lt;br&gt;&lt;/p&gt;" style="align=left;overflow=fill;html=1;dropTarget=0;whiteSpace=wrap;movable=1;resizable=1;rotatable=1;deletable=1;editable=1;locked=0;connectable=1;" vertex="1" parent="1">
          <mxGeometry x="1170" y="20" width="440" height="770" as="geometry" />
        </mxCell>
        <mxCell id="SbbJZf2o1sV2cWJp_qk--3" value="" style="shape=component;jettyWidth=8;jettyHeight=4;movable=1;resizable=1;rotatable=1;deletable=1;editable=1;locked=0;connectable=1;" vertex="1" parent="SbbJZf2o1sV2cWJp_qk--2">
          <mxGeometry x="1" width="20" height="20" relative="1" as="geometry">
            <mxPoint x="-24" y="4" as="offset" />
          </mxGeometry>
        </mxCell>
        <mxCell id="SbbJZf2o1sV2cWJp_qk--4" value="&lt;b&gt;GestioneUtente&lt;/b&gt;" style="text;html=1;align=center;verticalAlign=middle;resizable=1;points=[];autosize=1;strokeColor=none;fillColor=none;movable=1;rotatable=1;deletable=1;editable=1;locked=0;connectable=1;" vertex="1" parent="1">
          <mxGeometry x="905" y="320" width="110" height="30" as="geometry" />
        </mxCell>
        <mxCell id="SbbJZf2o1sV2cWJp_qk--6" value="" style="rounded=0;orthogonalLoop=1;jettySize=auto;html=1;endArrow=halfCircle;endFill=0;endSize=6;strokeWidth=1;sketch=0;exitX=0;exitY=0.5;exitDx=0;exitDy=0;movable=1;resizable=1;rotatable=1;deletable=1;editable=1;locked=0;connectable=1;" edge="1" parent="1" target="SbbJZf2o1sV2cWJp_qk--4">
          <mxGeometry relative="1" as="geometry">
            <mxPoint x="1162" y="335" as="sourcePoint" />
            <mxPoint x="1019" y="428" as="targetPoint" />
          </mxGeometry>
        </mxCell>
        <mxCell id="SbbJZf2o1sV2cWJp_qk--7" value="&lt;p style=&quot;margin:0px;margin-top:6px;text-align:center;&quot;&gt;&lt;b&gt;Component&lt;/b&gt;&lt;/p&gt;&lt;hr size=&quot;1&quot; style=&quot;border-style:solid;&quot;&gt;&lt;p style=&quot;text-align: center; margin: 0px 0px 0px 8px;&quot;&gt;GUI&lt;/p&gt;" style="align=left;overflow=fill;html=1;dropTarget=0;whiteSpace=wrap;movable=1;resizable=1;rotatable=1;deletable=1;editable=1;locked=0;connectable=1;" vertex="1" parent="1">
          <mxGeometry x="1300" y="110" width="180" height="90" as="geometry" />
        </mxCell>
        <mxCell id="SbbJZf2o1sV2cWJp_qk--8" value="" style="shape=component;jettyWidth=8;jettyHeight=4;movable=1;resizable=1;rotatable=1;deletable=1;editable=1;locked=0;connectable=1;" vertex="1" parent="SbbJZf2o1sV2cWJp_qk--7">
          <mxGeometry x="1" width="20" height="20" relative="1" as="geometry">
            <mxPoint x="-24" y="4" as="offset" />
          </mxGeometry>
        </mxCell>
        <mxCell id="SbbJZf2o1sV2cWJp_qk--9" value="" style="rounded=0;orthogonalLoop=1;jettySize=auto;html=1;endArrow=halfCircle;endFill=0;endSize=6;strokeWidth=1;sketch=0;exitX=0.5;exitY=1;exitDx=0;exitDy=0;movable=1;resizable=1;rotatable=1;deletable=1;editable=1;locked=0;connectable=1;" edge="1" parent="1" source="SbbJZf2o1sV2cWJp_qk--7">
          <mxGeometry relative="1" as="geometry">
            <mxPoint x="1388.5700000000002" y="280" as="sourcePoint" />
            <mxPoint x="1390" y="250" as="targetPoint" />
          </mxGeometry>
        </mxCell>
        <mxCell id="SbbJZf2o1sV2cWJp_qk--10" value="" style="rounded=0;orthogonalLoop=1;jettySize=auto;html=1;endArrow=oval;endFill=0;sketch=0;sourcePerimeterSpacing=0;targetPerimeterSpacing=0;endSize=10;movable=1;resizable=1;rotatable=1;deletable=1;editable=1;locked=0;connectable=1;exitX=0.5;exitY=0;exitDx=0;exitDy=0;" edge="1" parent="1" source="SbbJZf2o1sV2cWJp_qk--11">
          <mxGeometry relative="1" as="geometry">
            <mxPoint x="1390" y="440" as="sourcePoint" />
            <mxPoint x="1390" y="250" as="targetPoint" />
          </mxGeometry>
        </mxCell>
        <mxCell id="SbbJZf2o1sV2cWJp_qk--11" value="&lt;p style=&quot;margin:0px;margin-top:6px;text-align:center;&quot;&gt;&lt;b&gt;Component&lt;/b&gt;&lt;/p&gt;&lt;hr size=&quot;1&quot; style=&quot;border-style:solid;&quot;&gt;&lt;p style=&quot;text-align: center; margin: 0px 0px 0px 8px;&quot;&gt;Controller&lt;/p&gt;" style="align=left;overflow=fill;html=1;dropTarget=0;whiteSpace=wrap;movable=1;resizable=1;rotatable=1;deletable=1;editable=1;locked=0;connectable=1;" vertex="1" parent="1">
          <mxGeometry x="1300" y="290" width="180" height="90" as="geometry" />
        </mxCell>
        <mxCell id="SbbJZf2o1sV2cWJp_qk--12" value="" style="shape=component;jettyWidth=8;jettyHeight=4;movable=1;resizable=1;rotatable=1;deletable=1;editable=1;locked=0;connectable=1;" vertex="1" parent="SbbJZf2o1sV2cWJp_qk--11">
          <mxGeometry x="1" width="20" height="20" relative="1" as="geometry">
            <mxPoint x="-24" y="4" as="offset" />
          </mxGeometry>
        </mxCell>
        <mxCell id="SbbJZf2o1sV2cWJp_qk--13" value="&lt;p style=&quot;margin:0px;margin-top:6px;text-align:center;&quot;&gt;&lt;b&gt;Component&lt;/b&gt;&lt;/p&gt;&lt;hr size=&quot;1&quot; style=&quot;border-style:solid;&quot;&gt;&lt;p style=&quot;text-align: center; margin: 0px 0px 0px 8px;&quot;&gt;Service&lt;/p&gt;" style="align=left;overflow=fill;html=1;dropTarget=0;whiteSpace=wrap;movable=1;resizable=1;rotatable=1;deletable=1;editable=1;locked=0;connectable=1;" vertex="1" parent="1">
          <mxGeometry x="1300" y="470" width="180" height="90" as="geometry" />
        </mxCell>
        <mxCell id="SbbJZf2o1sV2cWJp_qk--14" value="" style="shape=component;jettyWidth=8;jettyHeight=4;movable=1;resizable=1;rotatable=1;deletable=1;editable=1;locked=0;connectable=1;" vertex="1" parent="SbbJZf2o1sV2cWJp_qk--13">
          <mxGeometry x="1" width="20" height="20" relative="1" as="geometry">
            <mxPoint x="-24" y="4" as="offset" />
          </mxGeometry>
        </mxCell>
        <mxCell id="SbbJZf2o1sV2cWJp_qk--16" value="" style="rounded=0;orthogonalLoop=1;jettySize=auto;html=1;endArrow=halfCircle;endFill=0;endSize=6;strokeWidth=1;sketch=0;movable=1;resizable=1;rotatable=1;deletable=1;editable=1;locked=0;connectable=1;" edge="1" parent="1">
          <mxGeometry relative="1" as="geometry">
            <mxPoint x="1390.13" y="380" as="sourcePoint" />
            <mxPoint x="1389.7" y="430" as="targetPoint" />
          </mxGeometry>
        </mxCell>
        <mxCell id="SbbJZf2o1sV2cWJp_qk--17" value="" style="rounded=0;orthogonalLoop=1;jettySize=auto;html=1;endArrow=oval;endFill=0;sketch=0;sourcePerimeterSpacing=0;targetPerimeterSpacing=0;endSize=10;movable=1;resizable=1;rotatable=1;deletable=1;editable=1;locked=0;connectable=1;exitX=0.5;exitY=0;exitDx=0;exitDy=0;" edge="1" parent="1">
          <mxGeometry relative="1" as="geometry">
            <mxPoint x="1389.7" y="470" as="sourcePoint" />
            <mxPoint x="1389.7" y="430" as="targetPoint" />
          </mxGeometry>
        </mxCell>
        <mxCell id="SbbJZf2o1sV2cWJp_qk--18" value="&lt;p style=&quot;margin:0px;margin-top:6px;text-align:center;&quot;&gt;&lt;b&gt;Component&lt;/b&gt;&lt;/p&gt;&lt;hr size=&quot;1&quot; style=&quot;border-style:solid;&quot;&gt;&lt;p style=&quot;text-align: center; margin: 0px 0px 0px 8px;&quot;&gt;DAO&lt;/p&gt;" style="align=left;overflow=fill;html=1;dropTarget=0;whiteSpace=wrap;movable=1;resizable=1;rotatable=1;deletable=1;editable=1;locked=0;connectable=1;" vertex="1" parent="1">
          <mxGeometry x="1300" y="650" width="180" height="90" as="geometry" />
        </mxCell>
        <mxCell id="SbbJZf2o1sV2cWJp_qk--19" value="" style="shape=component;jettyWidth=8;jettyHeight=4;movable=1;resizable=1;rotatable=1;deletable=1;editable=1;locked=0;connectable=1;" vertex="1" parent="SbbJZf2o1sV2cWJp_qk--18">
          <mxGeometry x="1" width="20" height="20" relative="1" as="geometry">
            <mxPoint x="-24" y="4" as="offset" />
          </mxGeometry>
        </mxCell>
        <mxCell id="SbbJZf2o1sV2cWJp_qk--20" value="" style="rounded=0;orthogonalLoop=1;jettySize=auto;html=1;endArrow=halfCircle;endFill=0;endSize=6;strokeWidth=1;sketch=0;movable=1;resizable=1;rotatable=1;deletable=1;editable=1;locked=0;connectable=1;" edge="1" parent="1">
          <mxGeometry relative="1" as="geometry">
            <mxPoint x="1390.13" y="560" as="sourcePoint" />
            <mxPoint x="1389.7" y="610" as="targetPoint" />
          </mxGeometry>
        </mxCell>
        <mxCell id="SbbJZf2o1sV2cWJp_qk--21" value="" style="rounded=0;orthogonalLoop=1;jettySize=auto;html=1;endArrow=oval;endFill=0;sketch=0;sourcePerimeterSpacing=0;targetPerimeterSpacing=0;endSize=10;movable=1;resizable=1;rotatable=1;deletable=1;editable=1;locked=0;connectable=1;exitX=0.5;exitY=0;exitDx=0;exitDy=0;" edge="1" parent="1">
          <mxGeometry relative="1" as="geometry">
            <mxPoint x="1389.7" y="650" as="sourcePoint" />
            <mxPoint x="1389.7" y="610" as="targetPoint" />
          </mxGeometry>
        </mxCell>
        <mxCell id="SbbJZf2o1sV2cWJp_qk--23" value="" style="endArrow=none;html=1;rounded=0;entryX=0;entryY=0.5;entryDx=0;entryDy=0;exitX=1;exitY=0.5;exitDx=0;exitDy=0;" edge="1" parent="1" target="SbbJZf2o1sV2cWJp_qk--11">
          <mxGeometry width="50" height="50" relative="1" as="geometry">
            <mxPoint x="1177" y="335" as="sourcePoint" />
            <mxPoint x="1190" y="340" as="targetPoint" />
          </mxGeometry>
        </mxCell>
        <mxCell id="3tAuYJD81ajkn5tEEdPX-1" value="" style="verticalLabelPosition=bottom;verticalAlign=top;html=1;shape=mxgraph.basic.rect;fillColor2=none;strokeWidth=1;size=7.5;indent=5;" vertex="1" parent="1">
          <mxGeometry x="1160" y="325" width="20" height="20" as="geometry" />
        </mxCell>
        <mxCell id="qmggrDmAwxFbS8zBJcom-1" value="" style="rounded=0;orthogonalLoop=1;jettySize=auto;html=1;endArrow=halfCircle;endFill=0;endSize=6;strokeWidth=1;sketch=0;fontSize=12;curved=1;exitX=0.5;exitY=1;exitDx=0;exitDy=0;" edge="1" parent="1">
          <mxGeometry relative="1" as="geometry">
            <mxPoint x="1390" y="740" as="sourcePoint" />
            <mxPoint x="1390" y="850" as="targetPoint" />
          </mxGeometry>
        </mxCell>
        <mxCell id="qmggrDmAwxFbS8zBJcom-2" value="" style="whiteSpace=wrap;html=1;aspect=fixed;" vertex="1" parent="1">
          <mxGeometry x="1380" y="780" width="20" height="20" as="geometry" />
        </mxCell>
        <mxCell id="qmggrDmAwxFbS8zBJcom-3" value="JPA" style="text;align=center;fontStyle=1;verticalAlign=middle;spacingLeft=3;spacingRight=3;strokeColor=none;rotatable=0;points=[[0,0.5],[1,0.5]];portConstraint=eastwest;html=1;" vertex="1" parent="1">
          <mxGeometry x="1350" y="850" width="80" height="26" as="geometry" />
        </mxCell>
      </root>
    </mxGraphModel>
  </diagram>
  <diagram id="S_0YG4M0llLSvLBoCi6F" name="ADF - Gestione Comunicazione">
    <mxGraphModel grid="1" page="1" gridSize="10" guides="1" tooltips="1" connect="1" arrows="1" fold="1" pageScale="1" pageWidth="827" pageHeight="1169" math="0" shadow="0">
      <root>
        <mxCell id="0" />
        <mxCell id="1" parent="0" />
        <mxCell id="JsfDQ_xtOOzS24CN-Qcl-1" value="&lt;p style=&quot;margin:0px;margin-top:6px;text-align:center;&quot;&gt;&lt;b&gt;Component&lt;br&gt;&amp;lt;&amp;lt;subsystem&amp;gt;&amp;gt;&lt;br&gt;Comunicazione&lt;/b&gt;&lt;/p&gt;&lt;hr size=&quot;1&quot; style=&quot;border-style:solid;&quot;&gt;&lt;p style=&quot;margin:0px;margin-left:8px;&quot;&gt;&lt;br&gt;&lt;/p&gt;" style="align=left;overflow=fill;html=1;dropTarget=0;whiteSpace=wrap;" vertex="1" parent="1">
          <mxGeometry x="203" y="129" width="440" height="910" as="geometry" />
        </mxCell>
        <mxCell id="JsfDQ_xtOOzS24CN-Qcl-2" value="" style="shape=component;jettyWidth=8;jettyHeight=4;" vertex="1" parent="JsfDQ_xtOOzS24CN-Qcl-1">
          <mxGeometry x="1" width="20" height="20" relative="1" as="geometry">
            <mxPoint x="-24" y="4" as="offset" />
          </mxGeometry>
        </mxCell>
        <mxCell id="iZ7mbv9HnXFeCkI019Zd-3" value="&lt;p style=&quot;margin:0px;margin-top:6px;text-align:center;&quot;&gt;&lt;b&gt;Component&lt;/b&gt;&lt;/p&gt;&lt;hr size=&quot;1&quot; style=&quot;border-style:solid;&quot;&gt;&lt;p style=&quot;text-align: center; margin: 0px 0px 0px 8px;&quot;&gt;&lt;br&gt;&lt;/p&gt;&lt;p style=&quot;text-align: center; margin: 0px 0px 0px 8px;&quot;&gt;GUI&lt;/p&gt;" style="align=left;overflow=fill;html=1;dropTarget=0;whiteSpace=wrap;" vertex="1" parent="1">
          <mxGeometry x="333" y="240" width="180" height="90" as="geometry" />
        </mxCell>
        <mxCell id="iZ7mbv9HnXFeCkI019Zd-4" value="" style="shape=component;jettyWidth=8;jettyHeight=4;" vertex="1" parent="iZ7mbv9HnXFeCkI019Zd-3">
          <mxGeometry x="1" width="20" height="20" relative="1" as="geometry">
            <mxPoint x="-24" y="4" as="offset" />
          </mxGeometry>
        </mxCell>
        <mxCell id="iZ7mbv9HnXFeCkI019Zd-5" value="&lt;p style=&quot;margin:0px;margin-top:6px;text-align:center;&quot;&gt;&lt;b&gt;Component&lt;/b&gt;&lt;/p&gt;&lt;hr size=&quot;1&quot; style=&quot;border-style:solid;&quot;&gt;&lt;p style=&quot;text-align: center; margin: 0px 0px 0px 8px;&quot;&gt;&lt;br&gt;&lt;/p&gt;&lt;p style=&quot;text-align: center; margin: 0px 0px 0px 8px;&quot;&gt;Control&lt;/p&gt;" style="align=left;overflow=fill;html=1;dropTarget=0;whiteSpace=wrap;" vertex="1" parent="1">
          <mxGeometry x="333" y="450" width="180" height="90" as="geometry" />
        </mxCell>
        <mxCell id="iZ7mbv9HnXFeCkI019Zd-6" value="" style="shape=component;jettyWidth=8;jettyHeight=4;" vertex="1" parent="iZ7mbv9HnXFeCkI019Zd-5">
          <mxGeometry x="1" width="20" height="20" relative="1" as="geometry">
            <mxPoint x="-24" y="4" as="offset" />
          </mxGeometry>
        </mxCell>
        <mxCell id="iZ7mbv9HnXFeCkI019Zd-7" value="&lt;p style=&quot;margin:0px;margin-top:6px;text-align:center;&quot;&gt;&lt;b&gt;Component&lt;/b&gt;&lt;/p&gt;&lt;hr size=&quot;1&quot; style=&quot;border-style:solid;&quot;&gt;&lt;p style=&quot;text-align: center; margin: 0px 0px 0px 8px;&quot;&gt;&lt;br&gt;&lt;/p&gt;&lt;p style=&quot;text-align: center; margin: 0px 0px 0px 8px;&quot;&gt;Service&lt;/p&gt;" style="align=left;overflow=fill;html=1;dropTarget=0;whiteSpace=wrap;" vertex="1" parent="1">
          <mxGeometry x="333" y="660" width="180" height="90" as="geometry" />
        </mxCell>
        <mxCell id="iZ7mbv9HnXFeCkI019Zd-8" value="" style="shape=component;jettyWidth=8;jettyHeight=4;" vertex="1" parent="iZ7mbv9HnXFeCkI019Zd-7">
          <mxGeometry x="1" width="20" height="20" relative="1" as="geometry">
            <mxPoint x="-24" y="4" as="offset" />
          </mxGeometry>
        </mxCell>
        <mxCell id="iZ7mbv9HnXFeCkI019Zd-9" value="&lt;p style=&quot;margin:0px;margin-top:6px;text-align:center;&quot;&gt;&lt;b&gt;Component&lt;/b&gt;&lt;/p&gt;&lt;hr size=&quot;1&quot; style=&quot;border-style:solid;&quot;&gt;&lt;p style=&quot;text-align: center; margin: 0px 0px 0px 8px;&quot;&gt;&lt;br&gt;&lt;/p&gt;&lt;p style=&quot;text-align: center; margin: 0px 0px 0px 8px;&quot;&gt;DAO&lt;/p&gt;" style="align=left;overflow=fill;html=1;dropTarget=0;whiteSpace=wrap;" vertex="1" parent="1">
          <mxGeometry x="327" y="870" width="180" height="90" as="geometry" />
        </mxCell>
        <mxCell id="iZ7mbv9HnXFeCkI019Zd-10" value="" style="shape=component;jettyWidth=8;jettyHeight=4;" vertex="1" parent="iZ7mbv9HnXFeCkI019Zd-9">
          <mxGeometry x="1" width="20" height="20" relative="1" as="geometry">
            <mxPoint x="-24" y="4" as="offset" />
          </mxGeometry>
        </mxCell>
        <mxCell id="iZ7mbv9HnXFeCkI019Zd-12" value="" style="ellipse;whiteSpace=wrap;html=1;align=center;aspect=fixed;fillColor=none;strokeColor=none;resizable=0;perimeter=centerPerimeter;rotatable=0;allowArrows=0;points=[];outlineConnect=1;" vertex="1" parent="1">
          <mxGeometry x="280" y="890" width="10" height="10" as="geometry" />
        </mxCell>
        <mxCell id="iZ7mbv9HnXFeCkI019Zd-11" value="" style="rounded=0;orthogonalLoop=1;jettySize=auto;html=1;endArrow=halfCircle;endFill=0;endSize=6;strokeWidth=1;sketch=0;fontSize=12;curved=1;exitX=0.5;exitY=1;exitDx=0;exitDy=0;" edge="1" parent="1">
          <mxGeometry relative="1" as="geometry">
            <mxPoint x="422.8" y="960" as="sourcePoint" />
            <mxPoint x="422.8" y="1135" as="targetPoint" />
          </mxGeometry>
        </mxCell>
        <mxCell id="iZ7mbv9HnXFeCkI019Zd-13" value="" style="rounded=0;whiteSpace=wrap;html=1;" vertex="1" parent="1">
          <mxGeometry x="418" y="1034" width="10" height="10" as="geometry" />
        </mxCell>
        <mxCell id="iZ7mbv9HnXFeCkI019Zd-19" value="" style="rounded=0;orthogonalLoop=1;jettySize=auto;html=1;endArrow=halfCircle;endFill=0;endSize=6;strokeWidth=1;sketch=0;" edge="1" parent="1">
          <mxGeometry relative="1" as="geometry">
            <mxPoint x="422.7" y="330" as="sourcePoint" />
            <mxPoint x="423" y="390" as="targetPoint" />
          </mxGeometry>
        </mxCell>
        <mxCell id="iZ7mbv9HnXFeCkI019Zd-20" value="" style="rounded=0;orthogonalLoop=1;jettySize=auto;html=1;endArrow=oval;endFill=0;sketch=0;sourcePerimeterSpacing=0;targetPerimeterSpacing=0;endSize=10;exitX=0.5;exitY=0;exitDx=0;exitDy=0;" edge="1" parent="1" source="iZ7mbv9HnXFeCkI019Zd-5">
          <mxGeometry relative="1" as="geometry">
            <mxPoint x="422.7" y="440" as="sourcePoint" />
            <mxPoint x="423" y="390" as="targetPoint" />
            <Array as="points" />
          </mxGeometry>
        </mxCell>
        <mxCell id="iZ7mbv9HnXFeCkI019Zd-21" value="" style="ellipse;whiteSpace=wrap;html=1;align=center;aspect=fixed;fillColor=none;strokeColor=none;resizable=0;perimeter=centerPerimeter;rotatable=0;allowArrows=0;points=[];outlineConnect=1;" vertex="1" parent="1">
          <mxGeometry x="725" y="380" width="10" height="10" as="geometry" />
        </mxCell>
        <mxCell id="iZ7mbv9HnXFeCkI019Zd-22" value="" style="rounded=0;orthogonalLoop=1;jettySize=auto;html=1;endArrow=halfCircle;endFill=0;endSize=6;strokeWidth=1;sketch=0;" edge="1" parent="1">
          <mxGeometry relative="1" as="geometry">
            <mxPoint x="422.65" y="540" as="sourcePoint" />
            <mxPoint x="422.95" y="600" as="targetPoint" />
          </mxGeometry>
        </mxCell>
        <mxCell id="iZ7mbv9HnXFeCkI019Zd-23" value="" style="rounded=0;orthogonalLoop=1;jettySize=auto;html=1;endArrow=oval;endFill=0;sketch=0;sourcePerimeterSpacing=0;targetPerimeterSpacing=0;endSize=10;exitX=0.5;exitY=0;exitDx=0;exitDy=0;" edge="1" parent="1">
          <mxGeometry relative="1" as="geometry">
            <mxPoint x="422.95" y="660" as="sourcePoint" />
            <mxPoint x="422.95" y="600" as="targetPoint" />
            <Array as="points" />
          </mxGeometry>
        </mxCell>
        <mxCell id="iZ7mbv9HnXFeCkI019Zd-24" value="" style="rounded=0;orthogonalLoop=1;jettySize=auto;html=1;endArrow=halfCircle;endFill=0;endSize=6;strokeWidth=1;sketch=0;" edge="1" parent="1">
          <mxGeometry relative="1" as="geometry">
            <mxPoint x="422.65" y="750" as="sourcePoint" />
            <mxPoint x="422.95" y="810" as="targetPoint" />
          </mxGeometry>
        </mxCell>
        <mxCell id="iZ7mbv9HnXFeCkI019Zd-25" value="" style="rounded=0;orthogonalLoop=1;jettySize=auto;html=1;endArrow=oval;endFill=0;sketch=0;sourcePerimeterSpacing=0;targetPerimeterSpacing=0;endSize=10;exitX=0.5;exitY=0;exitDx=0;exitDy=0;" edge="1" parent="1">
          <mxGeometry relative="1" as="geometry">
            <mxPoint x="422.95" y="870" as="sourcePoint" />
            <mxPoint x="422.95" y="810" as="targetPoint" />
            <Array as="points" />
          </mxGeometry>
        </mxCell>
        <mxCell id="m8DD4MfLaMYpz4NcypAH-1" value="JPA" style="text;align=center;fontStyle=1;verticalAlign=middle;spacingLeft=3;spacingRight=3;strokeColor=none;rotatable=0;points=[[0,0.5],[1,0.5]];portConstraint=eastwest;html=1;" vertex="1" parent="1">
          <mxGeometry x="383" y="1134" width="80" height="26" as="geometry" />
        </mxCell>
        <mxCell id="5jx9YQoBn3Mh1pqrLaoQ-1" value="" style="rounded=0;orthogonalLoop=1;jettySize=auto;html=1;endArrow=halfCircle;endFill=0;endSize=6;strokeWidth=1;sketch=0;fontSize=12;curved=1;" edge="1" parent="1">
          <mxGeometry relative="1" as="geometry">
            <mxPoint x="174" y="744.38" as="sourcePoint" />
            <mxPoint x="119" y="744" as="targetPoint" />
          </mxGeometry>
        </mxCell>
        <mxCell id="5jx9YQoBn3Mh1pqrLaoQ-2" value="Gestione&lt;div&gt;Utente&lt;/div&gt;" style="text;align=center;fontStyle=1;verticalAlign=middle;spacingLeft=3;spacingRight=3;strokeColor=none;rotatable=0;points=[[0,0.5],[1,0.5]];portConstraint=eastwest;html=1;" vertex="1" parent="1">
          <mxGeometry x="44" y="670" width="80" height="26" as="geometry" />
        </mxCell>
        <mxCell id="5jx9YQoBn3Mh1pqrLaoQ-3" value="Gestione&lt;div&gt;Corso&lt;/div&gt;" style="text;align=center;fontStyle=1;verticalAlign=middle;spacingLeft=3;spacingRight=3;strokeColor=none;rotatable=0;points=[[0,0.5],[1,0.5]];portConstraint=eastwest;html=1;" vertex="1" parent="1">
          <mxGeometry x="44" y="728" width="80" height="26" as="geometry" />
        </mxCell>
        <mxCell id="5jx9YQoBn3Mh1pqrLaoQ-4" value="" style="rounded=0;orthogonalLoop=1;jettySize=auto;html=1;endArrow=halfCircle;endFill=0;endSize=6;strokeWidth=1;sketch=0;fontSize=12;curved=1;" edge="1" parent="1">
          <mxGeometry relative="1" as="geometry">
            <mxPoint x="174" y="684.38" as="sourcePoint" />
            <mxPoint x="119" y="684" as="targetPoint" />
          </mxGeometry>
        </mxCell>
        <mxCell id="5jx9YQoBn3Mh1pqrLaoQ-5" value="" style="endArrow=none;html=1;rounded=0;" edge="1" parent="1">
          <mxGeometry width="50" height="50" relative="1" as="geometry">
            <mxPoint x="174" y="744" as="sourcePoint" />
            <mxPoint x="174" y="684" as="targetPoint" />
          </mxGeometry>
        </mxCell>
        <mxCell id="5jx9YQoBn3Mh1pqrLaoQ-6" value="" style="endArrow=none;html=1;rounded=0;exitX=0;exitY=0.5;exitDx=0;exitDy=0;" edge="1" parent="1" source="5jx9YQoBn3Mh1pqrLaoQ-7">
          <mxGeometry width="50" height="50" relative="1" as="geometry">
            <mxPoint x="333" y="715" as="sourcePoint" />
            <mxPoint x="174" y="714" as="targetPoint" />
          </mxGeometry>
        </mxCell>
        <mxCell id="5jx9YQoBn3Mh1pqrLaoQ-8" value="" style="endArrow=none;html=1;rounded=0;exitX=0;exitY=0.5;exitDx=0;exitDy=0;" edge="1" parent="1" target="5jx9YQoBn3Mh1pqrLaoQ-7">
          <mxGeometry width="50" height="50" relative="1" as="geometry">
            <mxPoint x="333" y="715" as="sourcePoint" />
            <mxPoint x="174" y="714" as="targetPoint" />
          </mxGeometry>
        </mxCell>
        <mxCell id="5jx9YQoBn3Mh1pqrLaoQ-7" value="" style="whiteSpace=wrap;html=1;aspect=fixed;" vertex="1" parent="1">
          <mxGeometry x="197" y="708" width="12" height="12" as="geometry" />
        </mxCell>
        <mxCell id="5jx9YQoBn3Mh1pqrLaoQ-9" value="" style="rounded=0;orthogonalLoop=1;jettySize=auto;html=1;endArrow=halfCircle;endFill=0;endSize=6;strokeWidth=1;sketch=0;fontSize=12;curved=1;" edge="1" parent="1">
          <mxGeometry relative="1" as="geometry">
            <mxPoint x="174" y="527.38" as="sourcePoint" />
            <mxPoint x="119" y="527" as="targetPoint" />
          </mxGeometry>
        </mxCell>
        <mxCell id="5jx9YQoBn3Mh1pqrLaoQ-10" value="Gestione&lt;div&gt;Annuncio&lt;/div&gt;" style="text;align=center;fontStyle=1;verticalAlign=middle;spacingLeft=3;spacingRight=3;strokeColor=none;rotatable=0;points=[[0,0.5],[1,0.5]];portConstraint=eastwest;html=1;" vertex="1" parent="1">
          <mxGeometry x="44" y="453" width="80" height="26" as="geometry" />
        </mxCell>
        <mxCell id="5jx9YQoBn3Mh1pqrLaoQ-11" value="Gestione&lt;div&gt;Alloggio&lt;/div&gt;" style="text;align=center;fontStyle=1;verticalAlign=middle;spacingLeft=3;spacingRight=3;strokeColor=none;rotatable=0;points=[[0,0.5],[1,0.5]];portConstraint=eastwest;html=1;" vertex="1" parent="1">
          <mxGeometry x="44" y="511" width="80" height="26" as="geometry" />
        </mxCell>
        <mxCell id="5jx9YQoBn3Mh1pqrLaoQ-12" value="" style="rounded=0;orthogonalLoop=1;jettySize=auto;html=1;endArrow=halfCircle;endFill=0;endSize=6;strokeWidth=1;sketch=0;fontSize=12;curved=1;" edge="1" parent="1">
          <mxGeometry relative="1" as="geometry">
            <mxPoint x="174" y="467.38" as="sourcePoint" />
            <mxPoint x="119" y="467" as="targetPoint" />
          </mxGeometry>
        </mxCell>
        <mxCell id="5jx9YQoBn3Mh1pqrLaoQ-13" value="" style="endArrow=none;html=1;rounded=0;" edge="1" parent="1">
          <mxGeometry width="50" height="50" relative="1" as="geometry">
            <mxPoint x="174" y="527" as="sourcePoint" />
            <mxPoint x="174" y="467" as="targetPoint" />
          </mxGeometry>
        </mxCell>
        <mxCell id="5jx9YQoBn3Mh1pqrLaoQ-14" value="" style="endArrow=none;html=1;rounded=0;exitX=0;exitY=0.5;exitDx=0;exitDy=0;" edge="1" parent="1" source="5jx9YQoBn3Mh1pqrLaoQ-16">
          <mxGeometry width="50" height="50" relative="1" as="geometry">
            <mxPoint x="333" y="498" as="sourcePoint" />
            <mxPoint x="174" y="497" as="targetPoint" />
          </mxGeometry>
        </mxCell>
        <mxCell id="5jx9YQoBn3Mh1pqrLaoQ-15" value="" style="endArrow=none;html=1;rounded=0;exitX=0;exitY=0.5;exitDx=0;exitDy=0;" edge="1" parent="1" target="5jx9YQoBn3Mh1pqrLaoQ-16">
          <mxGeometry width="50" height="50" relative="1" as="geometry">
            <mxPoint x="333" y="498" as="sourcePoint" />
            <mxPoint x="174" y="497" as="targetPoint" />
          </mxGeometry>
        </mxCell>
        <mxCell id="5jx9YQoBn3Mh1pqrLaoQ-16" value="" style="whiteSpace=wrap;html=1;aspect=fixed;" vertex="1" parent="1">
          <mxGeometry x="197" y="491" width="12" height="12" as="geometry" />
        </mxCell>
      </root>
    </mxGraphModel>
  </diagram>
  <diagram id="3ZpcISLL9WlEx0Wo2od6" name="GM - CDN">
    <mxGraphModel grid="1" page="1" gridSize="10" guides="1" tooltips="1" connect="1" arrows="1" fold="1" pageScale="1" pageWidth="827" pageHeight="1169" math="0" shadow="0">
      <root>
        <mxCell id="0" />
        <mxCell id="1" parent="0" />
        <mxCell id="DeaYTDNlcRzjS2ScX5nU-1" value="&lt;p style=&quot;margin:0px;margin-top:6px;text-align:center;&quot;&gt;&lt;b&gt;Component&lt;/b&gt;&lt;/p&gt;&lt;p style=&quot;margin:0px;margin-top:6px;text-align:center;&quot;&gt;&lt;b&gt;&amp;lt;&amp;lt;subsystem&amp;gt;&amp;gt;&lt;/b&gt;&lt;/p&gt;&lt;p style=&quot;margin:0px;margin-top:6px;text-align:center;&quot;&gt;&lt;b&gt;CDN&lt;/b&gt;&lt;/p&gt;&lt;hr size=&quot;1&quot; style=&quot;border-style:solid;&quot;&gt;&lt;p style=&quot;margin:0px;margin-left:8px;&quot;&gt;&lt;br&gt;&lt;/p&gt;" style="align=left;overflow=fill;html=1;dropTarget=0;whiteSpace=wrap;" vertex="1" parent="1">
          <mxGeometry x="220" y="130" width="590" height="400" as="geometry" />
        </mxCell>
        <mxCell id="DeaYTDNlcRzjS2ScX5nU-2" value="" style="shape=component;jettyWidth=8;jettyHeight=4;" vertex="1" parent="DeaYTDNlcRzjS2ScX5nU-1">
          <mxGeometry x="1" width="20" height="20" relative="1" as="geometry">
            <mxPoint x="-24" y="4" as="offset" />
          </mxGeometry>
        </mxCell>
        <mxCell id="DeaYTDNlcRzjS2ScX5nU-10" value="&lt;p style=&quot;margin:0px;margin-top:6px;text-align:center;&quot;&gt;&lt;b&gt;Component&lt;/b&gt;&lt;/p&gt;&lt;hr size=&quot;1&quot; style=&quot;border-style:solid;&quot;&gt;&lt;p style=&quot;text-align: center; margin: 0px 0px 0px 8px;&quot;&gt;Service&lt;/p&gt;" style="align=left;overflow=fill;html=1;dropTarget=0;whiteSpace=wrap;" vertex="1" parent="1">
          <mxGeometry x="425" y="210" width="180" height="90" as="geometry" />
        </mxCell>
        <mxCell id="DeaYTDNlcRzjS2ScX5nU-11" value="" style="shape=component;jettyWidth=8;jettyHeight=4;" vertex="1" parent="DeaYTDNlcRzjS2ScX5nU-10">
          <mxGeometry x="1" width="20" height="20" relative="1" as="geometry">
            <mxPoint x="-24" y="4" as="offset" />
          </mxGeometry>
        </mxCell>
        <mxCell id="DeaYTDNlcRzjS2ScX5nU-14" value="" style="ellipse;whiteSpace=wrap;html=1;align=center;aspect=fixed;fillColor=none;strokeColor=none;resizable=0;perimeter=centerPerimeter;rotatable=0;allowArrows=0;points=[];outlineConnect=1;" vertex="1" parent="1">
          <mxGeometry x="404" y="580" width="10" height="10" as="geometry" />
        </mxCell>
        <mxCell id="DeaYTDNlcRzjS2ScX5nU-15" value="&lt;p style=&quot;margin:0px;margin-top:6px;text-align:center;&quot;&gt;&lt;b&gt;Component&lt;/b&gt;&lt;/p&gt;&lt;hr size=&quot;1&quot; style=&quot;border-style:solid;&quot;&gt;&lt;p style=&quot;text-align: center; margin: 0px 0px 0px 8px;&quot;&gt;Repository FotoAlloggio&lt;/p&gt;" style="align=left;overflow=fill;html=1;dropTarget=0;whiteSpace=wrap;" vertex="1" parent="1">
          <mxGeometry x="234" y="390" width="180" height="90" as="geometry" />
        </mxCell>
        <mxCell id="DeaYTDNlcRzjS2ScX5nU-16" value="" style="shape=component;jettyWidth=8;jettyHeight=4;" vertex="1" parent="DeaYTDNlcRzjS2ScX5nU-15">
          <mxGeometry x="1" width="20" height="20" relative="1" as="geometry">
            <mxPoint x="-24" y="4" as="offset" />
          </mxGeometry>
        </mxCell>
        <mxCell id="DeaYTDNlcRzjS2ScX5nU-17" value="" style="rounded=0;orthogonalLoop=1;jettySize=auto;html=1;endArrow=halfCircle;endFill=0;endSize=6;strokeWidth=1;sketch=0;exitX=0.5;exitY=0;exitDx=0;exitDy=0;" edge="1" parent="1" source="9XsoI17vUxei2YoCpQeQ-1">
          <mxGeometry relative="1" as="geometry">
            <mxPoint x="508.5" y="390" as="sourcePoint" />
            <mxPoint x="515" y="340" as="targetPoint" />
          </mxGeometry>
        </mxCell>
        <mxCell id="DeaYTDNlcRzjS2ScX5nU-18" value="" style="rounded=0;orthogonalLoop=1;jettySize=auto;html=1;endArrow=oval;endFill=0;sketch=0;sourcePerimeterSpacing=0;targetPerimeterSpacing=0;endSize=10;exitX=0.5;exitY=1;exitDx=0;exitDy=0;" edge="1" parent="1" source="DeaYTDNlcRzjS2ScX5nU-10">
          <mxGeometry relative="1" as="geometry">
            <mxPoint x="408.77" y="420" as="sourcePoint" />
            <mxPoint x="515" y="340" as="targetPoint" />
          </mxGeometry>
        </mxCell>
        <mxCell id="DeaYTDNlcRzjS2ScX5nU-19" value="" style="rounded=0;orthogonalLoop=1;jettySize=auto;html=1;endArrow=halfCircle;endFill=0;endSize=6;strokeWidth=1;sketch=0;fontSize=12;curved=1;" edge="1" parent="1">
          <mxGeometry relative="1" as="geometry">
            <mxPoint x="160" y="319.38" as="sourcePoint" />
            <mxPoint x="105" y="319" as="targetPoint" />
          </mxGeometry>
        </mxCell>
        <mxCell id="DeaYTDNlcRzjS2ScX5nU-20" value="" style="ellipse;whiteSpace=wrap;html=1;align=center;aspect=fixed;fillColor=none;strokeColor=none;resizable=0;perimeter=centerPerimeter;rotatable=0;allowArrows=0;points=[];outlineConnect=1;" vertex="1" parent="1">
          <mxGeometry x="293" y="370" width="10" height="10" as="geometry" />
        </mxCell>
        <mxCell id="DeaYTDNlcRzjS2ScX5nU-21" value="Gestione&lt;div&gt;Alloggio&lt;/div&gt;" style="text;align=center;fontStyle=1;verticalAlign=middle;spacingLeft=3;spacingRight=3;strokeColor=none;rotatable=0;points=[[0,0.5],[1,0.5]];portConstraint=eastwest;html=1;" vertex="1" parent="1">
          <mxGeometry x="30" y="240" width="80" height="26" as="geometry" />
        </mxCell>
        <mxCell id="DeaYTDNlcRzjS2ScX5nU-28" value="Gestione&lt;div&gt;Corso&lt;/div&gt;" style="text;align=center;fontStyle=1;verticalAlign=middle;spacingLeft=3;spacingRight=3;strokeColor=none;rotatable=0;points=[[0,0.5],[1,0.5]];portConstraint=eastwest;html=1;" vertex="1" parent="1">
          <mxGeometry x="30" y="302" width="80" height="26" as="geometry" />
        </mxCell>
        <mxCell id="DeaYTDNlcRzjS2ScX5nU-29" value="" style="rounded=0;orthogonalLoop=1;jettySize=auto;html=1;endArrow=halfCircle;endFill=0;endSize=6;strokeWidth=1;sketch=0;fontSize=12;curved=1;exitX=0;exitY=0.5;exitDx=0;exitDy=0;" edge="1" parent="1" source="DeaYTDNlcRzjS2ScX5nU-32">
          <mxGeometry relative="1" as="geometry">
            <mxPoint x="159" y="254.38" as="sourcePoint" />
            <mxPoint x="110" y="254" as="targetPoint" />
          </mxGeometry>
        </mxCell>
        <mxCell id="DeaYTDNlcRzjS2ScX5nU-30" value="" style="endArrow=none;html=1;rounded=0;" edge="1" parent="1">
          <mxGeometry width="50" height="50" relative="1" as="geometry">
            <mxPoint x="160" y="320" as="sourcePoint" />
            <mxPoint x="160" y="180" as="targetPoint" />
          </mxGeometry>
        </mxCell>
        <mxCell id="DeaYTDNlcRzjS2ScX5nU-31" value="" style="endArrow=none;html=1;rounded=0;exitX=0;exitY=0.5;exitDx=0;exitDy=0;" edge="1" parent="1" source="DeaYTDNlcRzjS2ScX5nU-10">
          <mxGeometry width="50" height="50" relative="1" as="geometry">
            <mxPoint x="320" y="255" as="sourcePoint" />
            <mxPoint x="230" y="254.66" as="targetPoint" />
          </mxGeometry>
        </mxCell>
        <mxCell id="DeaYTDNlcRzjS2ScX5nU-32" value="" style="whiteSpace=wrap;html=1;aspect=fixed;" vertex="1" parent="1">
          <mxGeometry x="210" y="245" width="20" height="20" as="geometry" />
        </mxCell>
        <mxCell id="DeaYTDNlcRzjS2ScX5nU-33" value="" style="rounded=0;orthogonalLoop=1;jettySize=auto;html=1;endArrow=halfCircle;endFill=0;endSize=6;strokeWidth=1;sketch=0;fontSize=12;curved=1;exitX=0.5;exitY=1;exitDx=0;exitDy=0;" edge="1" parent="1">
          <mxGeometry relative="1" as="geometry">
            <mxPoint x="514.71" y="540" as="sourcePoint" />
            <mxPoint x="514.71" y="620" as="targetPoint" />
          </mxGeometry>
        </mxCell>
        <mxCell id="DeaYTDNlcRzjS2ScX5nU-34" value="" style="whiteSpace=wrap;html=1;aspect=fixed;" vertex="1" parent="1">
          <mxGeometry x="505" y="520" width="20" height="20" as="geometry" />
        </mxCell>
        <mxCell id="DeaYTDNlcRzjS2ScX5nU-35" value="MongoDB&lt;div&gt;connector&lt;/div&gt;" style="text;align=center;fontStyle=1;verticalAlign=middle;spacingLeft=3;spacingRight=3;strokeColor=none;rotatable=0;points=[[0,0.5],[1,0.5]];portConstraint=eastwest;html=1;" vertex="1" parent="1">
          <mxGeometry x="475" y="630" width="80" height="26" as="geometry" />
        </mxCell>
        <mxCell id="M_2wPlccgYm0_QMZvQvr-1" value="Gestione&lt;div&gt;Utente&lt;/div&gt;" style="text;align=center;fontStyle=1;verticalAlign=middle;spacingLeft=3;spacingRight=3;strokeColor=none;rotatable=0;points=[[0,0.5],[1,0.5]];portConstraint=eastwest;html=1;" vertex="1" parent="1">
          <mxGeometry x="30" y="170" width="80" height="26" as="geometry" />
        </mxCell>
        <mxCell id="M_2wPlccgYm0_QMZvQvr-2" value="" style="rounded=0;orthogonalLoop=1;jettySize=auto;html=1;endArrow=halfCircle;endFill=0;endSize=6;strokeWidth=1;sketch=0;fontSize=12;curved=1;" edge="1" parent="1">
          <mxGeometry relative="1" as="geometry">
            <mxPoint x="160" y="180.38" as="sourcePoint" />
            <mxPoint x="105" y="180" as="targetPoint" />
          </mxGeometry>
        </mxCell>
        <mxCell id="M_2wPlccgYm0_QMZvQvr-5" value="" style="endArrow=none;html=1;rounded=0;exitX=0.5;exitY=0;exitDx=0;exitDy=0;entryX=0.5;entryY=1;entryDx=0;entryDy=0;" edge="1" parent="1" source="DeaYTDNlcRzjS2ScX5nU-34" target="9XsoI17vUxei2YoCpQeQ-1">
          <mxGeometry width="50" height="50" relative="1" as="geometry">
            <mxPoint x="593" y="510" as="sourcePoint" />
            <mxPoint x="413" y="510.15999999999997" as="targetPoint" />
          </mxGeometry>
        </mxCell>
        <mxCell id="9XsoI17vUxei2YoCpQeQ-1" value="&lt;p style=&quot;margin:0px;margin-top:6px;text-align:center;&quot;&gt;&lt;b&gt;Component&lt;/b&gt;&lt;/p&gt;&lt;hr size=&quot;1&quot; style=&quot;border-style:solid;&quot;&gt;&lt;p style=&quot;text-align: center; margin: 0px 0px 0px 8px;&quot;&gt;Repository FotoProfilo&lt;/p&gt;" style="align=left;overflow=fill;html=1;dropTarget=0;whiteSpace=wrap;" vertex="1" parent="1">
          <mxGeometry x="425" y="390" width="180" height="90" as="geometry" />
        </mxCell>
        <mxCell id="9XsoI17vUxei2YoCpQeQ-2" value="" style="shape=component;jettyWidth=8;jettyHeight=4;" vertex="1" parent="9XsoI17vUxei2YoCpQeQ-1">
          <mxGeometry x="1" width="20" height="20" relative="1" as="geometry">
            <mxPoint x="-24" y="4" as="offset" />
          </mxGeometry>
        </mxCell>
        <mxCell id="9XsoI17vUxei2YoCpQeQ-3" value="&lt;p style=&quot;margin:0px;margin-top:6px;text-align:center;&quot;&gt;&lt;b&gt;Component&lt;/b&gt;&lt;/p&gt;&lt;hr size=&quot;1&quot; style=&quot;border-style:solid;&quot;&gt;&lt;p style=&quot;text-align: center; margin: 0px 0px 0px 8px;&quot;&gt;Repository PDF&lt;/p&gt;" style="align=left;overflow=fill;html=1;dropTarget=0;whiteSpace=wrap;" vertex="1" parent="1">
          <mxGeometry x="620" y="390" width="180" height="90" as="geometry" />
        </mxCell>
        <mxCell id="9XsoI17vUxei2YoCpQeQ-4" value="" style="shape=component;jettyWidth=8;jettyHeight=4;" vertex="1" parent="9XsoI17vUxei2YoCpQeQ-3">
          <mxGeometry x="1" width="20" height="20" relative="1" as="geometry">
            <mxPoint x="-24" y="4" as="offset" />
          </mxGeometry>
        </mxCell>
        <mxCell id="9XsoI17vUxei2YoCpQeQ-5" value="" style="endArrow=none;html=1;rounded=0;exitX=0.5;exitY=0;exitDx=0;exitDy=0;entryX=0.5;entryY=0;entryDx=0;entryDy=0;" edge="1" parent="1">
          <mxGeometry width="50" height="50" relative="1" as="geometry">
            <mxPoint x="708.9999999999998" y="390.0000000000001" as="sourcePoint" />
            <mxPoint x="323" y="390.0000000000001" as="targetPoint" />
            <Array as="points">
              <mxPoint x="709" y="360" />
              <mxPoint x="323" y="360" />
            </Array>
          </mxGeometry>
        </mxCell>
      </root>
    </mxGraphModel>
  </diagram>
</mxfile>
